####
#
#	OBJ File Generated by LightWave3D
#	LightWave3D OBJ Export v2.3
#
####
o boards.obj
mtllib boards.mtl
g default
v -11.5818 1.3025 22.9425
v -11.548 -0.255241 22.992
v -11.4625 0.344948 5.61209
v -11.4293 1.76078 5.6351
v -11.2029 1.63221 22.7917
v -11.128 2.06503 5.79343
v -11.1253 -0.240715 23.5588
v -11.041 1.29453 23.6645
v -10.7809 1.62615 23.358
v -9.5567 0.979652 11.7363
v -9.53363 1.9862 11.7588
v -9.36505 2.27283 11.4903
v -8.98578 -0.266075 23.8612
v -8.79388 1.48038 23.6383
v -8.7453 1.1199 23.9203
v -8.4162 -0.271416 18.938
v -8.38898 -0.275703 24.6001
v -8.34503 -0.657036 1.67618
v -8.33038 1.09779 18.9752
v -8.32355 0.445915 1.70236
v -8.23492 1.44808 18.7136
v -8.04364 0.957161 24.5794
v -8.04352 0.820183 1.77597
v -7.84003 1.52723 24.1585
v -5.46527 -0.0997849 -20.4874
v -5.44379 1.00336 -20.4612
v -5.19623 1.34649 -20.1367
v -4.42291 1.15969 24.255
v -4.20844 -0.322701 24.5363
v -4.18695 0.779869 24.5625
v -1.91217 0.981483 3.23392
v -1.66779 -0.481392 3.26389
v -1.64642 0.62159 3.29013
v -0.915222 1.28599 3.10794
v -0.892151 2.29325 3.1304
v -0.831848 2.58118 3.34787
v 0.461487 1.12293 -19.4341
v 0.503235 2.65704 8.59476
v 0.518982 0.958961 -19.6158
v 0.527283 1.36794 8.77707
v 0.550354 2.37525 8.79959
v 0.895325 -0.104942 18.902
v 0.900208 0.127739 18.9072
v 1.00446 1.17606 17.6661
v 1.16559 1.35468 17.6649
v 1.18805 0.958427 18.7852
v 1.52411 0.673271 -19.1443
v 1.56195 0.988762 -18.1493
v 1.77716 0.785774 -18.1782
v 1.84039 1.11037 18.9795
v 1.90033 1.32751 18.7785
v 1.95001 -0.39193 -19.4411
v 1.95465 -0.159248 -19.4355
v 2.36713 0.168877 -3.25931
v 2.39105 1.29801 -3.23404
v 2.6535 1.6007 -3.17667
v 3.27814 0.0103226 -24.6001
v 3.30182 1.13947 -24.5748
v 3.55707 1.48617 -24.2934
v 5.508 1.18552 19.6919
v 5.72394 -0.292183 19.9321
v 5.74762 0.836876 19.9574
v 6.54181 1.01902 -2.41849
v 6.7663 -0.48925 -2.40152
v 6.78998 0.639915 -2.37625
v 7.91901 1.54266 -24.0485
v 8.14703 -0.380653 -24.3445
v 8.1861 1.2125 -24.3019
v 9.54254 2.20376 0.424469
v 9.67548 0.896919 0.123322
v 9.69867 1.90424 0.145782
v 10.929 2.24368 6.22836
v 11.0355 2.00922 6.40268
v 11.133 2.31889 5.08804
v 11.2242 2.18371 5.05209
v 11.3383 1.92472 5.98026
v 11.5772 0.971977 6.24826
v 11.5818 1.17649 6.25284
vt 2.43784 1.52927
vt 2.44546 1.82014
vt 2.45191 1.54738
vt 2.45884 1.8071
vt 2.75313 0.800506
vt 2.75313 0.403961
vt 2.75313 0.681705
vt 2.75313 0.528677
vt 2.75339 0.672464
vt 2.75438 0.572486
vt 2.75441 0.448802
vt 2.75528 0.737238
vt 2.76846 0.639403
vt 2.81546 0.634936
vt 3.02341 2.26087
vt 3.04282 2.25669
vt 3.04504 2.09662
vt 3.04634 2.39425
vt 3.04782 2.2948
vt 3.0571 2.10975
vt 3.0598 2.29976
vt 3.06103 2.38614
vt 3.07422 2.42109
vt 3.08291 2.40709
vt 3.15959 1.75655
vt 3.16672 1.76644
vt 3.17266 2.01601
vt 3.17889 2.00783
vt 3.26115 2.30348
vt 3.27304 2.30218
vt 3.5432 1.77409
vt 3.54434 1.76437
vt 3.56358 1.99376
vt 3.56636 2.00171
vt 3.70491 1.53412
vt 3.70595 1.55179
vt 3.7482 1.78072
vt 3.75271 1.79313
vt 3.80004 0.410258
vt 3.80132 0.455098
vt 3.82888 0.804819
vt 3.83016 0.759977
vt 3.84683 0.487703
vt 3.84807 0.531505
vt 3.87472 0.704102
vt 3.87596 0.6603
vt 3.93828 1.75157
vt 3.9415 1.7426
vt 3.95798 1.75548
vt 3.95919 1.79433
vt 3.96362 1.99377
vt 3.96381 1.79417
vt 3.96652 2.09981
vt 3.96769 2.11278
vt 3.97478 2.00171
vt 3.99643 2.38012
vt 3.99782 2.39094
vt 4.82584 0.450255
vt 4.88111 0.441613
vt 4.88638 0.399384
vt 4.88664 0.408624
vt 4.89708 0.584365
vt 4.89945 0.522503
vt 4.89965 2.08126
vt 4.90194 2.07149
vt 4.92405 0.678956
vt 4.92437 0.796993
vt 4.9253 0.63517
vt 4.92564 0.752155
vt 4.94173 2.08695
vt 4.94693 1.51848
vt 4.94787 2.38003
vt 4.9484 1.50779
vt 4.94857 2.13534
vt 4.95655 2.13323
vt 4.96017 2.39094
vt 5.01198 1.5649
vt 5.0159 1.52032
vt 5.02538 1.56051
vt 5.06109 1.78043
vt 5.07867 1.79313
vt 5.34 0.547054
vt 5.34 0.617636
vt 5.34 0.469608
vt 5.34021 0.555176
vt 5.3411 0.573827
vt 5.34146 0.413381
vt 5.35423 0.69899
vt 5.35423 0.717641
vt 5.35423 1.05217
vt 5.35535 1.00733
vt 5.35537 0.658987
vt 5.35541 0.773867
vt 5.36471 0.513984
vt 5.36557 0.97267
vt 5.36557 0.813023
vt 5.36724 0.867397
vt 5.36724 0.918295
vt 5.37965 1.09721
vt 5.37965 1.25028
vt 5.37965 1.16774
vt 5.38074 1.21153
vt 5.38077 1.14205
vt 5.39156 1.30532
vt 5.49285 1.24335
vt 5.49718 1.30431
vt 5.51895 1.30489
vt 5.52069 1.24303
vt 5.56905 1.1607
vt 5.57005 1.08635
vt 5.58597 1.20966
vt 5.593 1.0677
vt 5.59486 1.00443
vt 5.59879 0.647888
vt 5.60179 1.09238
vt 5.60839 0.972458
vt 5.61087 0.917418
vt 5.61612 1.12537
vt 5.61635 1.13461
vt 5.63547 0.575591
vt 5.64201 0.861812
vt 5.64363 0.812853
vt 5.64457 0.658174
vt 5.65808 0.742847
vt 5.65811 0.696009
vt 5.65834 0.687887
vt 5.65922 0.782819
vt 5.66484 0.654818
vt 5.68567 0.586937
vt 5.70607 0.629238
vt 5.7063 0.619997
vt 5.81628 0.432237
vt 5.81729 0.392235
vt 5.83805 0.499449
vt 5.83905 0.539452
vt 6.29422 0.514899
vt 6.2952 0.447688
vt 6.29522 0.554871
vt 6.2962 0.407685
vn -0.998476 0.0222158 -0.0505251
vn -0.994287 -0.000661066 0.106741
vn -0.990566 0.022503 -0.135175
vn -0.950662 0.305389 -0.054579
vn -0.950524 0.260699 0.168939
vn -0.909523 0.393876 -0.132777
vn -0.887693 0.343818 0.306251
vn -0.868504 0.0284102 -0.494867
vn -0.86711 0.493974 0.0641093
vn -0.820598 0.325014 -0.47009
vn -0.797895 0.00334535 0.602788
vn -0.771086 0.161795 0.615831
vn -0.760021 0.364028 -0.538379
vn -0.724376 0.00224187 0.689402
vn -0.709314 0.379886 -0.593768
vn -0.672227 0.200259 0.712746
vn -0.623216 -0.0200285 0.781794
vn -0.604428 0.611725 0.510352
vn -0.557672 0.382683 0.736584
vn -0.473573 0.838111 -0.270735
vn -0.448122 0.860368 0.242803
vn -0.415263 0.421938 0.805932
vn -0.39942 0.0307512 -0.916252
vn -0.399088 0.434019 0.807686
vn -0.380287 0.922292 0.0689895
vn -0.377832 0.918582 0.115978
vn -0.368948 0.929336 -0.014561
vn -0.35724 0.84562 -0.396618
vn -0.312351 0.873754 -0.372816
vn -0.276859 0.96019 -0.0372153
vn -0.256027 0.476574 0.841028
vn -0.251452 0.0259037 -0.967523
vn -0.228831 0.437489 -0.86962
vn -0.184632 0.916244 0.355539
vn -0.180896 0.0268858 -0.983135
vn -0.110463 0.90116 0.419175
vn -0.103258 0.932703 -0.345546
vn -0.102504 0.906533 0.409501
vn 0.0526778 0.998092 0.0321921
vn 0.0867503 0.953579 0.288377
vn 0.229126 0.418904 0.878647
vn 0.229349 0.878293 -0.419523
vn 0.236306 0.92599 -0.294451
vn 0.239041 0.28871 0.927095
vn 0.2463 -0.0278521 0.968793
vn 0.259389 0.482291 -0.836727
vn 0.26849 0.963001 0.0232748
vn 0.344873 0.846366 0.405865
vn 0.371998 0.927852 0.0266023
vn 0.400428 0.784967 0.472741
vn 0.422417 0.804502 0.417541
vn 0.42603 0.892722 -0.146784
vn 0.468612 0.712936 -0.521655
vn 0.470456 0.881205 -0.0463509
vn 0.476705 0.363348 0.800457
vn 0.477858 0.00858357 -0.878395
vn 0.507994 0.376462 0.774738
vn 0.518871 0.854848 -0.00277824
vn 0.578125 0.252457 -0.77591
vn 0.612724 0.377799 -0.694145
vn 0.615294 -0.11529 0.779822
vn 0.624604 0.39856 0.67158
vn 0.667148 -0.0184919 0.744696
vn 0.718922 0.593812 0.361301
vn 0.735429 0.623527 -0.265252
vn 0.747294 -0.000553673 -0.664493
vn 0.78027 0.222187 -0.584647
vn 0.804493 -0.00185975 -0.593959
vn 0.809783 0.395039 0.433814
vn 0.814669 0.538688 0.214778
vn 0.857444 -0.029481 0.513732
vn 0.887133 0.428611 -0.171137
vn 0.906402 0.141195 0.398119
vn 0.907614 0.419274 -0.0211113
vn 0.920871 0.369351 0.124808
vn 0.941607 0.332422 0.0535866
vn 0.983976 -0.0264279 0.17633
vn 0.988775 -0.0230268 0.147629
vn 0.998071 -0.0234888 0.0574693
usemtl Material::martin_wood_002_mt
s 1
f 67/112/66 57/90/23 68/113/60
f 68/113/60 57/90/23 58/91/13
f 57/6/23 54/39/1 58/11/13
f 58/11/13 54/39/1 55/40/4
f 67/5/66 68/12/60 64/41/79
f 64/41/79 68/12/60 65/42/76
f 60/80/48 63/37/49 51/77/34
f 51/77/34 63/37/49 45/71/26
f 63/37/49 56/36/27 45/71/26
f 64/41/79 65/42/76 61/67/71
f 61/67/71 65/42/76 62/69/44
f 54/39/1 42/60/11 55/40/4
f 42/60/11 43/61/12 55/40/4
f 44/58/9 55/40/4 43/61/12
f 61/103/71 62/99/44 42/119/11
f 42/119/11 62/99/44 43/118/12
f 62/99/44 50/110/31 43/118/12
f 46/78/18 51/77/34 45/71/26
f 50/110/31 46/115/18 43/118/12
f 46/59/18 44/58/9 43/61/12
f 63/37/49 66/4/52 56/36/27
f 56/36/27 66/4/52 59/3/28
f 68/2/60 66/4/52 65/38/76
f 65/38/76 66/4/52 63/37/49
f 66/4/52 68/2/60 59/3/28
f 59/3/28 68/2/60 58/1/13
f 58/1/13 55/35/4 59/3/28
f 59/3/28 55/35/4 56/36/27
f 62/81/44 65/38/76 60/80/48
f 60/80/48 65/38/76 63/37/49
f 62/81/44 60/80/48 50/79/31
f 50/79/31 60/80/48 51/77/34
f 55/35/4 44/73/9 56/36/27
f 56/36/27 44/73/9 45/71/26
f 51/77/34 46/78/18 50/79/31
f 45/71/26 44/73/9 46/78/18
f 3/89/8 10/124/14 4/93/10
f 4/93/10 10/124/14 11/127/24
f 10/138/14 40/135/45 11/136/24
f 11/136/24 40/135/45 41/134/41
f 3/84/8 4/87/10 34/132/32
f 34/132/32 4/87/10 35/133/33
f 36/33/37 38/31/40 69/51/42
f 72/47/50 74/50/58 38/31/40
f 74/50/58 69/51/42 38/31/40
f 70/137/56 34/132/32 71/139/59
f 71/139/59 34/132/32 35/133/33
f 41/134/41 40/135/45 73/94/55
f 77/85/77 78/82/73 40/135/45
f 73/94/55 40/135/45 78/82/73
f 70/88/56 71/92/59 77/125/77
f 77/125/77 71/92/59 78/126/73
f 71/92/59 75/114/72 78/126/73
f 76/49/70 74/50/58 72/47/50
f 75/114/72 76/123/70 78/126/73
f 76/123/70 73/128/55 78/126/73
f 6/28/20 12/26/38 36/33/37
f 36/33/37 12/26/38 38/31/40
f 4/27/10 6/28/20 35/34/33
f 35/34/33 6/28/20 36/33/37
f 4/27/10 11/25/24 6/28/20
f 6/28/20 11/25/24 12/26/38
f 11/25/24 41/32/41 12/26/38
f 12/26/38 41/32/41 38/31/40
f 71/55/59 35/34/33 69/51/42
f 69/51/42 35/34/33 36/33/37
f 71/55/59 69/51/42 75/52/72
f 75/52/72 69/51/42 74/50/58
f 38/31/40 41/32/41 72/47/50
f 72/47/50 41/32/41 73/48/55
f 74/50/58 76/49/70 75/52/72
f 72/47/50 73/48/55 76/49/70
f 7/106/17 13/104/61 8/105/22
f 8/105/22 13/104/61 15/100/57
f 32/45/78 33/46/75 29/66/63
f 29/66/63 33/46/75 30/68/62
f 18/43/3 2/63/2 20/44/6
f 20/44/6 2/63/2 1/62/7
f 31/54/47 48/64/54 23/56/30
f 27/72/29 23/56/30 37/74/43
f 37/74/43 23/56/30 48/64/54
f 25/8/35 18/43/3 26/10/15
f 26/10/15 18/43/3 20/44/6
f 33/46/75 32/45/78 49/14/74
f 52/7/68 53/9/67 32/45/78
f 49/14/74 32/45/78 53/9/67
f 52/130/68 25/83/35 53/131/67
f 53/131/67 25/83/35 39/120/46
f 26/86/15 39/120/46 25/83/35
f 47/70/65 47/70/53 48/64/54
f 47/70/53 37/74/43 48/64/54
f 39/120/46 47/129/53 53/131/67
f 47/13/53 47/13/65 53/9/67
f 47/13/65 49/14/74 53/9/67
f 23/56/30 5/24/25 31/54/47
f 14/21/64 21/30/39 9/22/36
f 9/22/36 21/30/39 5/24/25
f 5/24/25 21/30/39 31/54/47
f 28/20/51 31/54/47 24/16/21
f 21/30/39 24/16/21 31/54/47
f 1/23/7 5/24/25 20/57/6
f 20/57/6 5/24/25 23/56/30
f 8/18/22 15/19/57 9/22/36
f 9/22/36 15/19/57 14/21/64
f 30/17/62 33/53/75 28/20/51
f 28/20/51 33/53/75 31/54/47
f 26/76/15 20/57/6 27/72/29
f 27/72/29 20/57/6 23/56/30
f 26/76/15 27/72/29 39/75/46
f 39/75/46 27/72/29 37/74/43
f 31/54/47 33/53/75 48/64/54
f 48/64/54 33/53/75 49/65/74
f 37/74/43 47/70/53 39/75/46
f 48/64/54 49/65/74 47/70/65
f 17/111/16 29/102/63 22/109/19
f 22/109/19 29/102/63 30/101/62
f 24/16/21 22/15/19 28/20/51
f 28/20/51 22/15/19 30/17/62
f 21/30/39 19/29/69 24/16/21
f 24/16/21 19/29/69 22/15/19
f 17/122/16 22/121/19 16/96/5
f 16/96/5 22/121/19 19/97/69
f 15/19/57 19/29/69 14/21/64
f 14/21/64 19/29/69 21/30/39
f 16/95/5 19/98/69 13/116/61
f 13/116/61 19/98/69 15/117/57
f 2/107/2 7/106/17 1/108/7
f 1/108/7 7/106/17 8/105/22
f 1/23/7 8/18/22 5/24/25
f 5/24/25 8/18/22 9/22/36
