####
#
#	OBJ File Generated by LightWave3D
#	LightWave3D OBJ Export v2.3
#
####
o crock3.obj
mtllib crock3.mtl
g default
v -4.60376 1.17558 -0
v -4.47705 -1.67488 -0
v -4.28687 3.67207 -0
v -4.14783 1.17558 1.99749
v -4.14783 1.17558 -1.99749
v -4.07947 -4.25133 -0
v -4.03369 -1.67488 1.94249
v -4.03369 -1.67488 -1.94249
v -3.86243 3.67207 1.86
v -3.86243 3.67207 -1.86001
v -3.67554 -4.25133 1.77
v -3.67554 -4.25133 -1.77
v -3.49585 5.86404 -0
v -3.35083 -5.69998 -0
v -3.24866 -6.10193 -0
v -3.15833 6.10193 -0
v -3.14966 5.86404 1.51675
v -3.14966 5.86404 -1.5168
v -3.01892 -5.69998 1.45385
v -3.01892 -5.69998 -1.45385
v -2.927 -6.10193 1.40949
v -2.927 -6.10193 -1.40955
v -2.87256 5.86404 -0
v -2.87036 1.17558 3.59934
v -2.87036 1.17558 -3.59934
v -2.84546 6.10193 1.3703
v -2.84546 6.10193 -1.37036
v -2.81506 -2.48215 0.642487
v -2.79138 -1.67488 3.50026
v -2.79138 -1.67488 -3.50026
v -2.67285 3.67207 3.35165
v -2.67285 3.67207 -3.35165
v -2.58813 5.86404 1.24635
v -2.58813 5.86404 -1.24641
v -2.54358 -4.25133 3.18945
v -2.54358 -4.25133 -3.18945
v -2.25745 -2.48215 -1.80034
v -2.17957 5.86404 2.73309
v -2.17957 5.86404 -2.73315
v -2.08923 -5.69998 2.61977
v -2.08923 -5.69998 -2.61977
v -2.02551 -6.10193 2.5399
v -2.02551 -6.10193 -2.53996
v -1.96912 6.10193 2.46921
v -1.96912 6.10193 -2.46932
v -1.79102 5.86404 2.24584
v -1.79102 5.86404 -2.24596
v -1.25281 -2.48215 2.60146
v -1.02441 1.17558 4.48829
v -1.02441 1.17558 -4.48829
v -0.996216 -1.67488 4.36478
v -0.996216 -1.67488 -4.36478
v -0.953979 3.67207 4.17943
v -0.953979 3.67207 -4.17943
v -0.907837 -4.25133 3.97716
v -0.907837 -4.25133 -3.97716
v -0.777954 5.86404 3.40815
v -0.777954 5.86404 -3.4082
v -0.745605 -5.69998 3.26677
v -0.745605 -5.69998 -3.26677
v -0.7229 -6.10193 3.16719
v -0.7229 -6.10193 -3.16725
v -0.702759 6.10193 3.07908
v -0.702759 6.10193 -3.07914
v -0.63916 5.86404 2.8005
v -0.63916 5.86404 -2.80061
v 0 -2.48215 -2.88744
v 0.63916 5.86404 2.8005
v 0.63916 5.86404 -2.80061
v 0.702759 6.10193 3.07908
v 0.702759 6.10193 -3.07914
v 0.7229 -6.10193 3.16719
v 0.7229 -6.10193 -3.16725
v 0.745605 -5.69998 3.26677
v 0.745605 -5.69998 -3.26677
v 0.777832 5.86404 3.40815
v 0.777832 5.86404 -3.4082
v 0.907715 -4.25133 3.97716
v 0.907715 -4.25133 -3.97716
v 0.953979 3.67207 4.17943
v 0.953979 3.67207 -4.17943
v 0.996216 -1.67488 4.36478
v 0.996216 -1.67488 -4.36478
v 1.02441 1.17558 4.48829
v 1.02441 1.17558 -4.48829
v 1.25281 -2.48215 2.60146
v 1.79102 5.86404 2.24584
v 1.79102 5.86404 -2.24596
v 1.96912 6.10193 2.46921
v 1.96912 6.10193 -2.46932
v 2.02551 -6.10193 2.5399
v 2.02551 -6.10193 -2.53996
v 2.08923 -5.69998 2.61977
v 2.08923 -5.69998 -2.61977
v 2.17957 5.86404 2.73309
v 2.17957 5.86404 -2.73315
v 2.25745 -2.48215 -1.80034
v 2.54346 -4.25133 3.18945
v 2.54346 -4.25133 -3.18945
v 2.58813 5.86404 1.24635
v 2.58813 5.86404 -1.24641
v 2.67285 3.67207 3.35165
v 2.67285 3.67207 -3.35165
v 2.79138 -1.67488 3.50026
v 2.79138 -1.67488 -3.50026
v 2.81506 -2.48215 0.642487
v 2.84546 6.10193 1.3703
v 2.84546 6.10193 -1.37036
v 2.87036 1.17558 3.59934
v 2.87036 1.17558 -3.59934
v 2.87256 5.86404 -0
v 2.927 -6.10193 1.40949
v 2.927 -6.10193 -1.40955
v 3.01892 -5.69998 1.45385
v 3.01892 -5.69998 -1.45385
v 3.14954 5.86404 1.51675
v 3.14954 5.86404 -1.5168
v 3.15833 6.10193 -0
v 3.24866 -6.10193 -0
v 3.35083 -5.69998 -0
v 3.49585 5.86404 -0
v 3.67542 -4.25133 1.77
v 3.67542 -4.25133 -1.77
v 3.86243 3.67207 1.86
v 3.86243 3.67207 -1.86001
v 4.03369 -1.67488 1.94249
v 4.03369 -1.67488 -1.94249
v 4.07947 -4.25133 -0
v 4.14783 1.17558 1.99749
v 4.14783 1.17558 -1.99749
v 4.28687 3.67207 -0
v 4.47705 -1.67488 -0
v 4.60376 1.17558 -0
vt -0.499968 0.29661
vt -0.428544 0.977831
vt -0.428541 0.977831
vt -0.428541 2.98023e-008
vt -0.428539 0.151641
vt -0.428539 0.362758
vt -0.428539 0.596329
vt -0.428539 0.800895
vt -0.428539 0.0329351
vt -0.285689 0.977831
vt -0.285685 2.98023e-008
vt -0.285685 0.977831
vt -0.285683 0.0329351
vt -0.285683 0.800895
vt -0.285682 0.362758
vt -0.285682 0.596329
vt -0.285682 0.151641
vt -0.214261 0.29661
vt -0.142831 0.977831
vt -0.142828 0.977831
vt -0.142826 2.98023e-008
vt -0.142826 0.596329
vt -0.142825 0.0329351
vt -0.142824 0.362758
vt -0.142824 0.151641
vt -0.142824 0.800895
vt 3.18289e-005 2.98023e-008
vt 3.18289e-005 0.0329351
vt 3.18289e-005 0.151641
vt 3.18289e-005 0.362758
vt 3.18289e-005 0.596329
vt 3.18289e-005 0.800895
vt 3.18289e-005 0.977831
vt 0.0714586 0.29661
vt 0.142885 2.98023e-008
vt 0.142887 0.977831
vt 0.142887 0.800895
vt 0.142888 0.151641
vt 0.142888 0.362758
vt 0.142888 0.0329351
vt 0.142889 0.977831
vt 0.142889 0.596329
vt 0.285745 0.977831
vt 0.285745 2.98023e-008
vt 0.285745 0.977831
vt 0.285746 0.151641
vt 0.285746 0.362758
vt 0.285746 0.596329
vt 0.285747 0.800895
vt 0.285747 0.0329351
vt 0.357177 0.29661
vt 0.428602 0.0329351
vt 0.428603 0.800895
vt 0.428603 0.596329
vt 0.428603 0.151641
vt 0.428603 0.362758
vt 0.428603 2.98023e-008
vt 0.428604 0.977831
vt 0.428605 0.977831
vt 0.57146 0.977831
vt 0.571461 0.151641
vt 0.571461 0.362758
vt 0.571461 0.596329
vt 0.571461 0.800895
vt 0.571461 0.0329351
vt 0.571461 0.977831
vt 0.571463 2.98023e-008
vt 0.64289 0.29661
vt 0.714317 0.0329351
vt 0.714317 0.800895
vt 0.714318 0.362758
vt 0.714318 0.596329
vt 0.714318 0.151641
vt 0.714318 2.98023e-008
vt 0.714319 0.977831
vt 0.71432 0.977831
vt 0.857175 0.596329
vt 0.857175 0.0329351
vt 0.857175 0.362758
vt 0.857176 0.151641
vt 0.857176 0.977831
vt 0.857176 0.800895
vt 0.857176 0.977831
vt 0.85718 2.98023e-008
vt 0.928606 0.29661
vt 1.00003 2.98023e-008
vt 1.00003 0.0329351
vt 1.00003 0.151641
vt 1.00003 0.362758
vt 1.00003 0.596329
vt 1.00003 0.800895
vt 1.00003 0.977831
vt 1.14289 0.800895
vt 1.14289 0.151641
vt 1.14289 0.362758
vt 1.14289 0.0329351
vt 1.14289 2.98023e-008
vt 1.14289 0.596329
vt 1.14289 0.977831
vt 1.14289 0.977831
vt 1.21432 0.29661
vt 1.28575 0.151641
vt 1.28575 0.362758
vt 1.28575 0.596329
vt 1.28575 0.800895
vt 1.28575 0.977831
vt 1.28575 0.0329351
vt 1.28575 2.98023e-008
vt 1.28575 0.977831
vt 1.4286 2.98023e-008
vt 1.4286 0.0329351
vt 1.4286 0.596329
vt 1.4286 0.800895
vt 1.4286 0.151641
vt 1.4286 0.362758
vt 1.4286 0.977831
vt 1.42861 0.977831
vt 1.50003 0.29661
vt 1.57146 0.977831
vt 1.57146 0.977831
vt 1.57146 2.98023e-008
vt 1.57146 0.151641
vt 1.57146 0.362758
vt 1.57146 0.596329
vt 1.57146 0.800895
vt 1.57146 0.0329351
vt 2.42724 0.423476
vt 2.42724 0.525498
vt 2.44882 0.520573
vt 2.44882 0.428401
vt 2.46708 0.516404
vt 2.46708 0.43257
vt 2.4715 0.331557
vt 2.4715 0.61742
vt 2.48881 0.345357
vt 2.48881 0.60362
vt 2.50346 0.357038
vt 2.50346 0.591939
vt 2.55127 0.267944
vt 2.55127 0.68103
vt 2.56087 0.287886
vt 2.56087 0.661092
vt 2.569 0.304769
vt 2.569 0.644212
vt 2.65073 0.267376
vt 2.65073 0.245242
vt 2.65073 0.286114
vt 2.65074 0.703733
vt 2.65074 0.681599
vt 2.65074 0.662864
vt 2.73247 0.304767
vt 2.73247 0.644209
vt 2.7406 0.287887
vt 2.7406 0.661089
vt 2.7502 0.267945
vt 2.7502 0.681031
vt 2.79801 0.357036
vt 2.79801 0.591941
vt 2.81266 0.345355
vt 2.81266 0.603621
vt 2.82996 0.331555
vt 2.82997 0.617418
vt 2.83438 0.432568
vt 2.83439 0.516405
vt 2.85265 0.428398
vt 2.85265 0.520573
vt 2.87423 0.423473
vt 2.87423 0.525499
vt 3.1274 0.165304
vt 3.1274 0.244818
vt 3.1274 0.205057
vt 3.16189 0.0936658
vt 3.16189 0.316455
vt 3.1964 0.348337
vt 3.1964 0.0617803
vt 3.22405 0.0440912
vt 3.22406 0.36603
vt 3.30158 0.0263957
vt 3.30158 0.383722
vt 3.35144 0.383722
vt 3.35144 0.0263946
vt 3.37909 0.0440878
vt 3.3791 0.366026
vt 3.44126 0.0936628
vt 3.44126 0.31645
vt 3.47576 0.244814
vt 3.47576 0.1653
vt 3.47577 0.125546
vt 3.47577 0.284574
vn -0.999162 0.0409161 0.000260991
vn -0.995126 -0.0986137 -0.000394977
vn -0.97218 0.234229 0.00187955
vn -0.952351 -0.304985 -0.0034885
vn -0.936725 -0.350055 0.00277924
vn -0.900321 0.0409033 -0.433301
vn -0.900104 0.0409105 0.433749
vn -0.896745 -0.098604 0.431423
vn -0.896409 -0.0986089 -0.432119
vn -0.876718 0.234237 -0.420118
vn -0.875094 0.234227 0.423495
vn -0.85956 -0.304998 0.41004
vn -0.858485 0.511825 0.0322327
vn -0.856522 -0.304989 -0.416356
vn -0.845183 -0.350013 -0.403927
vn -0.842766 -0.35003 0.40893
vn -0.818288 0.433123 0.377902
vn -0.805638 0.433149 -0.40414
vn -0.793686 0.608164 0.0141074
vn -0.768313 0.634655 -0.0831178
vn -0.7212 0.608178 -0.331646
vn -0.720823 -0.690946 -0.054854
vn -0.708931 0.608194 0.357095
vn -0.67705 0.273808 0.683105
vn -0.673254 -0.69092 0.263359
vn -0.625701 -0.690892 -0.362169
vn -0.623161 0.0409029 -0.781023
vn -0.622765 0.0409044 0.781339
vn -0.62075 -0.0986049 0.777783
vn -0.620147 -0.0986033 -0.778264
vn -0.607614 0.23423 -0.758908
vn -0.604668 0.234239 0.761255
vn -0.596509 -0.304977 0.742406
vn -0.591053 -0.304983 -0.746754
vn -0.58622 -0.350025 -0.730636
vn -0.581862 -0.350092 0.734079
vn -0.560452 0.511779 -0.651134
vn -0.51006 0.511805 0.691299
vn -0.505897 0.608146 -0.611742
vn -0.492295 -0.690969 0.529346
vn -0.483812 0.608175 0.629324
vn -0.468859 0.483907 -0.738921
vn -0.406544 -0.690934 -0.597773
vn -0.222581 0.0409048 -0.974056
vn -0.222088 0.0409056 0.974168
vn -0.221816 -0.0986146 0.970089
vn -0.221058 -0.0986089 -0.970263
vn -0.218162 0.234222 -0.947389
vn -0.215323 -0.304981 0.927697
vn -0.21471 0.433163 0.875368
vn -0.214509 0.234237 0.948219
vn -0.213847 -0.69097 0.690529
vn -0.21114 -0.350008 -0.912641
vn -0.208501 -0.304986 -0.929253
vn -0.205721 -0.350057 0.913859
vn -0.190384 0.608162 -0.770644
vn -0.186338 0.433187 -0.881832
vn -0.16286 0.608168 0.776922
vn -0.106937 -0.690897 -0.715
vn -0.0700436 0.997529 -0.00550264
vn -0.0654828 0.997529 0.0254369
vn -0.0607169 0.997529 -0.0353471
vn -0.0479751 0.997529 0.0513302
vn -0.0393409 0.99753 -0.0581947
vn -0.0209396 0.99753 0.0670551
vn -0.0102496 0.997528 -0.069517
vn 0.0102959 0.997526 0.0695423
vn 0.0209574 0.99753 -0.0670493
vn 0.0393689 0.99753 0.0581767
vn 0.0479747 0.997531 -0.0512817
vn 0.0607723 0.997526 0.0353229
vn 0.0654796 0.99753 -0.0254168
vn 0.0700539 0.997528 0.0054692
vn 0.0899239 0.634656 0.767545
vn 0.106929 -0.690959 0.714942
vn 0.148743 -0.975856 -0.159938
vn 0.159603 0.511857 -0.844115
vn 0.162857 0.608141 -0.776944
vn 0.190377 0.608163 0.770646
vn 0.205727 -0.349985 -0.913886
vn 0.208502 -0.30498 0.929255
vn 0.211135 -0.350063 0.912621
vn 0.214504 0.234229 -0.948222
vn 0.215323 -0.304983 -0.927697
vn 0.218162 0.234237 0.947385
vn 0.221058 -0.0986158 0.970262
vn 0.221816 -0.098618 -0.970089
vn 0.222088 0.0409056 -0.974168
vn 0.222433 0.511804 0.829807
vn 0.222581 0.0409048 0.974056
vn 0.253166 -0.517311 -0.817494
vn 0.313619 0.2738 -0.909218
vn 0.406517 -0.690985 0.597732
vn 0.48384 0.608138 -0.629338
vn 0.505894 0.608166 0.611723
vn 0.550513 0.433141 0.71367
vn 0.573251 0.433173 -0.695518
vn 0.581879 -0.350019 -0.7341
vn 0.586213 -0.350053 0.730628
vn 0.591057 -0.304973 0.746755
vn 0.596509 -0.304974 -0.742407
vn 0.604676 0.234237 -0.761249
vn 0.607608 0.234243 0.758909
vn 0.620146 -0.0986191 0.778263
vn 0.620749 -0.0986179 -0.777782
vn 0.622765 0.0409042 -0.781339
vn 0.623161 0.0409029 0.781023
vn 0.625675 -0.690923 0.362155
vn 0.637245 0.736731 -0.226156
vn 0.708957 0.608156 -0.357107
vn 0.720818 -0.69095 0.0548576
vn 0.721214 0.608154 0.331661
vn 0.759523 0.511762 -0.401527
vn 0.787466 0.511794 0.343458
vn 0.793696 0.608152 -0.0140963
vn 0.796998 -0.517299 -0.311763
vn 0.816629 0.273808 0.508081
vn 0.842779 -0.34998 -0.408948
vn 0.845185 -0.350004 0.40393
vn 0.856514 -0.304987 0.416374
vn 0.859555 -0.304982 -0.410061
vn 0.875087 0.234238 -0.423504
vn 0.876718 0.234257 0.420107
vn 0.896403 -0.0986229 0.432128
vn 0.896743 -0.098624 -0.431422
vn 0.900104 0.0409103 -0.433749
vn 0.900321 0.0409035 0.4333
vn 0.90119 0.433181 0.0145404
vn 0.936731 -0.350039 -0.00276703
vn 0.952351 -0.304984 0.00348732
vn 0.972178 0.234238 -0.0018665
vn 0.995125 -0.0986212 0.000384407
vn 0.999162 0.0409162 -0.000260917
usemtl Material::martin_clay_001_mt
s 1
f 115/96/118 94/107/98 123/94/121
f 123/94/121 94/107/98 99/102/101
f 94/107/98 75/111/80 99/102/101
f 99/102/101 75/111/80 79/114/84
f 75/111/80 60/126/53 79/114/84
f 79/114/84 60/126/53 56/122/54
f 60/9/53 41/13/35 56/5/54
f 56/5/54 41/13/35 36/17/34
f 41/13/35 20/23/15 36/17/34
f 36/17/34 20/23/15 12/25/14
f 20/23/15 14/28/5 12/25/14
f 12/25/14 14/28/5 6/29/4
f 14/28/5 19/40/16 6/29/4
f 6/29/4 19/40/16 11/38/12
f 19/40/16 40/50/36 11/38/12
f 11/38/12 40/50/36 35/46/33
f 40/50/36 59/52/55 35/46/33
f 35/46/33 59/52/55 55/55/49
f 59/52/55 74/65/82 55/55/49
f 55/55/49 74/65/82 78/61/81
f 74/65/82 93/69/99 78/61/81
f 78/61/81 93/69/99 98/73/100
f 93/69/99 114/78/119 98/73/100
f 98/73/100 114/78/119 122/80/120
f 114/78/119 120/87/129 122/80/120
f 122/80/120 120/87/129 128/88/130
f 120/87/129 115/96/118 128/88/130
f 128/88/130 115/96/118 123/94/121
f 123/94/121 99/102/101 127/95/125
f 127/95/125 99/102/101 105/103/105
f 99/102/101 79/114/84 105/103/105
f 105/103/105 79/114/84 83/115/87
f 79/114/84 56/122/54 83/115/87
f 83/115/87 56/122/54 52/123/47
f 56/5/54 36/17/34 52/6/47
f 52/6/47 36/17/34 30/15/30
f 36/17/34 12/25/14 30/15/30
f 30/15/30 12/25/14 8/24/9
f 12/25/14 6/29/4 8/24/9
f 8/24/9 6/29/4 2/30/2
f 6/29/4 11/38/12 2/30/2
f 2/30/2 11/38/12 7/39/8
f 11/38/12 35/46/33 7/39/8
f 7/39/8 35/46/33 29/47/29
f 35/46/33 55/55/49 29/47/29
f 29/47/29 55/55/49 51/56/46
f 55/55/49 78/61/81 51/56/46
f 51/56/46 78/61/81 82/62/86
f 78/61/81 98/73/100 82/62/86
f 82/62/86 98/73/100 104/71/104
f 98/73/100 122/80/120 104/71/104
f 104/71/104 122/80/120 126/79/124
f 122/80/120 128/88/130 126/79/124
f 126/79/124 128/88/130 132/89/132
f 128/88/130 123/94/121 132/89/132
f 132/89/132 123/94/121 127/95/125
f 127/95/125 105/103/105 130/98/126
f 130/98/126 105/103/105 110/104/106
f 105/103/105 83/115/87 110/104/106
f 110/104/106 83/115/87 85/112/88
f 83/115/87 52/123/47 85/112/88
f 85/112/88 52/123/47 50/124/44
f 52/6/47 30/15/30 50/7/44
f 50/7/44 30/15/30 25/16/27
f 30/15/30 8/24/9 25/16/27
f 25/16/27 8/24/9 5/22/6
f 8/24/9 2/30/2 5/22/6
f 5/22/6 2/30/2 1/31/1
f 2/30/2 7/39/8 1/31/1
f 1/31/1 7/39/8 4/42/7
f 7/39/8 29/47/29 4/42/7
f 4/42/7 29/47/29 24/48/28
f 29/47/29 51/56/46 24/48/28
f 24/48/28 51/56/46 49/54/45
f 51/56/46 82/62/86 49/54/45
f 49/54/45 82/62/86 84/63/90
f 82/62/86 104/71/104 84/63/90
f 84/63/90 104/71/104 109/72/107
f 104/71/104 126/79/124 109/72/107
f 109/72/107 126/79/124 129/77/127
f 126/79/124 132/89/132 129/77/127
f 129/77/127 132/89/132 133/90/133
f 132/89/132 127/95/125 133/90/133
f 133/90/133 127/95/125 130/98/126
f 130/98/126 110/104/106 125/93/122
f 125/93/122 110/104/106 103/105/102
f 110/104/106 85/112/88 103/105/102
f 103/105/102 85/112/88 81/113/83
f 85/112/88 50/124/44 81/113/83
f 81/113/83 50/124/44 54/125/48
f 50/7/44 25/16/27 54/8/48
f 54/8/48 25/16/27 32/14/31
f 25/16/27 5/22/6 32/14/31
f 32/14/31 5/22/6 10/26/10
f 5/22/6 1/31/1 10/26/10
f 10/26/10 1/31/1 3/32/3
f 1/31/1 4/42/7 3/32/3
f 3/32/3 4/42/7 9/37/11
f 4/42/7 24/48/28 9/37/11
f 9/37/11 24/48/28 31/49/32
f 24/48/28 49/54/45 31/49/32
f 31/49/32 49/54/45 53/53/51
f 49/54/45 84/63/90 53/53/51
f 53/53/51 84/63/90 80/64/85
f 84/63/90 109/72/107 80/64/85
f 80/64/85 109/72/107 102/70/103
f 109/72/107 129/77/127 102/70/103
f 102/70/103 129/77/127 124/82/123
f 129/77/127 133/90/133 124/82/123
f 124/82/123 133/90/133 131/91/131
f 133/90/133 130/98/126 131/91/131
f 131/91/131 130/98/126 125/93/122
f 125/93/122 103/105/102 117/99/110
f 117/99/110 103/105/102 96/106/94
f 103/105/102 81/113/83 96/106/94
f 96/106/94 81/113/83 77/116/78
f 81/113/83 54/125/48 77/116/78
f 77/116/78 54/125/48 58/120/56
f 54/8/48 32/14/31 58/3/56
f 58/3/56 32/14/31 39/12/39
f 32/14/31 10/26/10 39/12/39
f 39/12/39 10/26/10 18/20/21
f 10/26/10 3/32/3 18/20/21
f 18/20/21 3/32/3 13/33/19
f 3/32/3 9/37/11 13/33/19
f 13/33/19 9/37/11 17/36/23
f 9/37/11 31/49/32 17/36/23
f 17/36/23 31/49/32 38/45/41
f 31/49/32 53/53/51 38/45/41
f 38/45/41 53/53/51 57/58/58
f 53/53/51 80/64/85 57/58/58
f 57/58/58 80/64/85 76/60/79
f 80/64/85 102/70/103 76/60/79
f 76/60/79 102/70/103 95/76/95
f 102/70/103 124/82/123 95/76/95
f 95/76/95 124/82/123 116/83/112
f 124/82/123 131/91/131 116/83/112
f 116/83/112 131/91/131 121/92/115
f 131/91/131 125/93/122 121/92/115
f 121/92/115 125/93/122 117/99/110
f 113/169/116 119/172/111 92/170/76
f 119/172/111 112/176/108 92/170/76
f 112/176/108 91/178/93 92/170/76
f 91/178/93 72/182/75 92/170/76
f 72/182/75 61/184/52 92/170/76
f 61/184/52 42/187/40 92/170/76
f 42/187/40 21/186/25 92/170/76
f 21/186/25 15/185/22 92/170/76
f 15/185/22 22/183/26 92/170/76
f 22/183/26 43/179/43 92/170/76
f 43/179/43 62/177/59 92/170/76
f 62/177/59 73/173/91 92/170/76
f 97/189/24 67/180/74 106/188/20
f 37/174/117 28/171/109 67/180/74
f 48/175/92 86/181/42 28/171/109
f 67/180/74 28/171/109 106/188/20
f 28/171/109 86/181/42 106/188/20
f 115/96/118 120/87/129 113/97/116
f 113/97/116 120/87/129 119/86/111
f 120/87/129 114/78/119 119/86/111
f 119/86/111 114/78/119 112/84/108
f 114/78/119 93/69/99 112/84/108
f 112/84/108 93/69/99 91/74/93
f 93/69/99 74/65/82 91/74/93
f 91/74/93 74/65/82 72/67/75
f 74/65/82 59/52/55 72/67/75
f 72/67/75 59/52/55 61/57/52
f 59/52/55 40/50/36 61/57/52
f 61/57/52 40/50/36 42/44/40
f 40/50/36 19/40/16 42/44/40
f 42/44/40 19/40/16 21/35/25
f 19/40/16 14/28/5 21/35/25
f 21/35/25 14/28/5 15/27/22
f 14/28/5 20/23/15 15/27/22
f 15/27/22 20/23/15 22/21/26
f 20/23/15 41/13/35 22/21/26
f 22/21/26 41/13/35 43/11/43
f 41/13/35 60/9/53 43/11/43
f 43/11/43 60/9/53 62/4/59
f 60/126/53 75/111/80 62/121/59
f 62/121/59 75/111/80 73/110/91
f 75/111/80 94/107/98 73/110/91
f 73/110/91 94/107/98 92/108/76
f 94/107/98 115/96/118 92/108/76
f 92/108/76 115/96/118 113/97/116
f 117/168/110 96/162/94 108/166/62
f 108/166/62 96/162/94 90/160/60
f 96/162/94 77/156/78 90/160/60
f 90/160/60 77/156/78 71/154/61
f 77/156/78 58/148/56 71/154/61
f 71/154/61 58/148/56 64/149/63
f 58/148/56 39/140/39 64/149/63
f 64/149/63 39/140/39 45/142/65
f 39/140/39 18/134/21 45/142/65
f 45/142/65 18/134/21 27/136/67
f 18/134/21 13/128/19 27/136/67
f 27/136/67 13/128/19 16/129/69
f 13/128/19 17/127/23 16/129/69
f 16/129/69 17/127/23 26/130/71
f 17/127/23 38/133/41 26/130/71
f 26/130/71 38/133/41 44/135/73
f 38/133/41 57/139/58 44/135/73
f 44/135/73 57/139/58 63/141/72
f 57/139/58 76/146/79 63/141/72
f 63/141/72 76/146/79 70/145/70
f 76/146/79 95/155/95 70/145/70
f 70/145/70 95/155/95 89/153/68
f 95/155/95 116/161/112 89/153/68
f 89/153/68 116/161/112 107/159/66
f 116/161/112 121/167/115 107/159/66
f 107/159/66 121/167/115 118/165/64
f 121/167/115 117/168/110 118/165/64
f 118/165/64 117/168/110 108/166/62
f 101/100/17 88/109/38 97/101/24
f 88/109/38 69/117/50 97/101/24
f 97/101/24 69/117/50 67/118/74
f 69/117/50 66/119/89 67/118/74
f 66/2/89 47/10/96 67/1/74
f 67/1/74 47/10/96 37/18/117
f 47/10/96 34/19/114 37/18/117
f 34/19/114 23/33/128 37/18/117
f 37/18/117 23/33/128 28/34/109
f 23/33/128 33/41/113 28/34/109
f 33/41/113 46/43/97 28/34/109
f 28/34/109 46/43/97 48/51/92
f 46/43/97 65/59/77 48/51/92
f 65/59/77 68/66/57 48/51/92
f 48/51/92 68/66/57 86/68/42
f 68/66/57 87/75/37 86/68/42
f 87/75/37 100/81/18 86/68/42
f 86/68/42 100/81/18 106/85/20
f 100/81/18 111/92/13 106/85/20
f 111/92/13 101/100/17 106/85/20
f 106/85/20 101/100/17 97/101/24
f 44/135/73 63/141/72 46/137/97
f 46/137/97 63/141/72 65/143/77
f 26/130/71 44/135/73 33/132/113
f 33/132/113 44/135/73 46/137/97
f 16/129/69 26/130/71 23/131/128
f 23/131/128 26/130/71 33/132/113
f 27/136/67 16/129/69 34/138/114
f 34/138/114 16/129/69 23/131/128
f 45/142/65 27/136/67 47/144/96
f 47/144/96 27/136/67 34/138/114
f 64/149/63 45/142/65 66/150/89
f 66/150/89 45/142/65 47/144/96
f 71/154/61 64/149/63 69/152/50
f 69/152/50 64/149/63 66/150/89
f 90/160/60 71/154/61 88/158/38
f 88/158/38 71/154/61 69/152/50
f 108/166/62 90/160/60 101/164/17
f 101/164/17 90/160/60 88/158/38
f 118/165/64 108/166/62 111/163/13
f 111/163/13 108/166/62 101/164/17
f 107/159/66 118/165/64 100/157/18
f 100/157/18 118/165/64 111/163/13
f 89/153/68 107/159/66 87/151/37
f 87/151/37 107/159/66 100/157/18
f 70/145/70 89/153/68 68/147/57
f 68/147/57 89/153/68 87/151/37
f 63/141/72 70/145/70 65/143/77
f 65/143/77 70/145/70 68/147/57
