####
#
#	OBJ File Generated by LightWave3D
#	LightWave3D OBJ Export v2.3
#
####
o oriental_houses_01_LOD4.obj
mtllib oriental_houses_01_LOD4.mtl
g default
v -320 0 45
v -320 0 -185
v -320 0 -425
v -320 280 45
v -320 280 -185
v -320 280 -425
v -290 0 390
v -290 0 40
v -290 250 390
v -290 250 40
v -290 265 -375
v -290 265 -415
v -290 380 -375
v -290 380 -415
v -290 420 390
v -290 420 40
v -255 265 -375
v -255 265 -415
v -255 380 -375
v -255 380 -415
v -230 420 330
v -230 420 100
v -200 470 300
v -200 470 130
v -140 500 240
v -140 500 190
v -100 0 45
v -100 0 -185
v -100 0 -425
v -100 280 45
v -100 280 -185
v -100 280 -425
v -100 500 240
v -100 500 190
v -80 0 -185
v -80 0 -425
v -80 280 -185
v -80 280 -425
v -40 470 300
v -40 470 130
v -22 0 -185
v -22 0 -425
v -22 250 -185
v -22 250 -425
v -10 420 330
v -10 420 100
v 50 0 450
v 50 0 390
v 50 0 40
v 50 250 450
v 50 250 390
v 50 250 40
v 50 420 390
v 50 420 40
v 170 0 55
v 170 0 -195
v 170 155 55
v 170 155 -195
v 210 0 55
v 210 0 -195
v 210 155 55
v 210 155 -195
v 215 0 -185
v 215 0 -425
v 215 250 -185
v 215 250 -425
v 320 0 450
v 320 0 390
v 320 0 40
v 320 250 450
v 320 250 390
v 320 250 40
vt 0.0331 0.639252
vt 0.0331 0.828253
vt 0.0385741 0.371814
vt 0.0385741 0.48448
vt 0.0385741 0.602045
vt 0.0524932 0.202815
vt 0.0524932 0.374264
vt 0.0534437 0.639252
vt 0.0534437 0.808002
vt 0.0534437 0.922752
vt 0.0803314 0.232206
vt 0.0803314 0.344872
vt 0.0942505 0.246902
vt 0.0942505 0.330177
vt 0.122089 0.276293
vt 0.122089 0.300786
vt 0.140647 0.276293
vt 0.140647 0.300786
vt 0.140647 0.371814
vt 0.140647 0.48448
vt 0.140647 0.602045
vt 0.149927 0.48448
vt 0.149927 0.602045
vt 0.168486 0.246902
vt 0.168486 0.330177
vt 0.176837 0.48448
vt 0.176837 0.602045
vt 0.182287 0.639252
vt 0.182287 0.828253
vt 0.182405 0.232206
vt 0.182405 0.344872
vt 0.210243 0.173424
vt 0.210243 0.202815
vt 0.210243 0.374264
vt 0.219238 0.279847
vt 0.219238 0.309576
vt 0.219238 0.340597
vt 0.22454 0.235253
vt 0.22454 0.280493
vt 0.258116 0.279847
vt 0.258116 0.309576
vt 0.258116 0.340597
vt 0.261651 0.309576
vt 0.261651 0.340597
vt 0.265919 0.366916
vt 0.265919 0.489379
vt 0.2719 0.309576
vt 0.2719 0.340597
vt 0.284006 0.639252
vt 0.284006 0.808002
vt 0.284006 0.922752
vt 0.284478 0.366916
vt 0.284478 0.489379
vt 0.284624 0.227497
vt 0.284624 0.235253
vt 0.284624 0.280493
vt 0.286798 0.48448
vt 0.286798 0.602045
vt 0.30583 0.278554
vt 0.30583 0.310868
vt 0.312899 0.278554
vt 0.312899 0.310868
vt 0.313783 0.309576
vt 0.313783 0.340597
vt 0.332338 0.227497
vt 0.332338 0.235253
vt 0.332338 0.280493
vt 0.335515 0.173424
vt 0.335515 0.202815
vt 0.335515 0.374264
vt 0.383661 0.117171
vt 0.383661 0.288872
vt 0.451397 0.117171
vt 0.451397 0.288872
vt 0.4671 0.639252
vt 0.4671 0.808002
vt 0.522432 0.492668
vt 0.522432 0.610802
vt 0.549035 0.745573
vt 0.549035 0.883799
vt 0.553874 0.492668
vt 0.553874 0.610802
vt 0.553874 0.691133
vt 0.553983 0.876394
vt 0.553983 0.933165
vt 0.565696 0.117171
vt 0.565696 0.288872
vt 0.565696 0.405628
vt 0.573777 0.876394
vt 0.573777 0.933165
vt 0.615571 0.117171
vt 0.615571 0.288872
vt 0.655749 0.117171
vt 0.655749 0.309476
vt 0.662847 0.745573
vt 0.662847 0.822091
vt 0.667796 0.745573
vt 0.667796 0.883799
vt 0.669603 0.117171
vt 0.669603 0.309476
vt 0.716263 0.492668
vt 0.716263 0.565911
vt 0.72117 0.492668
vt 0.72117 0.624978
vt 0.723624 0.492668
vt 0.723624 0.610802
vt 0.723624 0.691133
vt 0.779135 0.745573
vt 0.779135 0.866989
vt 0.779135 0.944912
vt 0.781609 0.745573
vt 0.781609 0.883799
vt 0.786557 0.745573
vt 0.786557 0.822091
vt 0.786975 0.299174
vt 0.786975 0.386156
vt 0.80122 0.117171
vt 0.80122 0.288872
vt 0.80122 0.299174
vt 0.80122 0.386156
vt 0.80122 0.405628
vt 0.822002 0.117171
vt 0.822002 0.309476
vt 0.834034 0.492668
vt 0.834034 0.610802
vt 0.834034 0.624978
vt 0.838941 0.492668
vt 0.838941 0.565911
vt 0.950328 0.745573
vt 0.950328 0.866989
vt 0.950328 0.944912
vt 0.951805 0.492668
vt 0.951805 0.610802
vt 0.982018 0.745573
vt 0.982018 0.866989
vn -0.8 -0.6 -0
vn -0.8 0 0.6
vn -0.666667 -0.666667 -0.333333
vn -0.666667 0.333333 0.666667
vn -0.666667 0.333333 0.666667
vn -0.57735 -0.57735 0.57735
vn -0.57735 -0.57735 0.57735
vn -0.57735 0.57735 -0.57735
vn -0.5547 0 -0.83205
vn -0.5547 0.83205 -0
vn -0.485071 0.727607 -0.485071
vn -0.42726 0.835227 0.346187
vn -0.408248 -0.816497 -0.408248
vn -0.348155 -0.870388 0.348155
vn -0.334931 0.880706 -0.334931
vn -0.333333 0.666667 -0.666667
vn -0.305733 0.901695 -0.305733
vn -0.267261 0.801784 0.534522
vn -0.234351 0.965065 0.117175
vn -0.173881 0.921318 0.347761
vn -0.116423 0.986353 -0.116423
vn 0 -0.707107 0.707107
vn 0 -0.707107 -0.707107
vn 0 -0.447214 -0.894427
vn 0 0.707107 -0.707107
vn 0.109658 0.689375 0.716056
vn 0.109658 0.689375 -0.716056
vn 0.117175 0.965065 -0.234351
vn 0.156386 0.975237 0.156386
vn 0.165759 0.972136 0.165759
vn 0.182574 0.365148 -0.912871
vn 0.19245 0.96225 0.19245
vn 0.219315 0.662695 0.716056
vn 0.219315 0.662695 -0.716056
vn 0.229416 0.688247 0.688247
vn 0.333333 -0.666667 0.666667
vn 0.333333 -0.666667 0.666667
vn 0.346187 0.835227 -0.42726
vn 0.348155 -0.870388 0.348155
vn 0.408248 -0.816497 -0.408248
vn 0.408248 0.408248 0.816497
vn 0.408248 0.816497 0.408248
vn 0.425661 0.879497 -0.212831
vn 0.436436 0.872872 -0.218218
vn 0.439999 0.782816 0.439999
vn 0.57735 0.57735 -0.57735
vn 0.666667 -0.333333 -0.666667
vn 0.666667 0.666667 0.333333
vn 0.666667 0.666667 0.333333
vn 0.707107 -0.707107 -0
vn 0.707107 0.707107 -0
vn 0.816497 -0.408248 0.408248
usemtl material_house1_lod4
s off
f 49/56/23 68/66/50 48/55/14
f 49/56/23 69/67/47 68/66/50
f 67/75/36 50/50/5 47/49/6
f 70/76/48 50/50/5 67/75/36
f 69/105/47 71/82/51 68/81/50
f 72/106/46 71/82/51 69/105/47
f 52/87/31 69/71/47 49/86/23
f 52/87/31 72/72/46 69/71/47
f 9/130/2 8/108/3 7/129/6
f 9/130/2 10/109/9 8/108/3
f 50/135/5 48/129/14 47/134/6
f 50/135/5 51/130/35 48/129/14
f 68/81/50 70/78/48 67/77/36
f 71/82/51 70/78/48 68/81/50
f 48/55/14 67/65/36 47/54/6
f 48/55/14 68/66/50 67/65/36
f 7/38/6 8/39/3 48/55/14
f 8/39/3 49/56/23 48/55/14
f 8/117/3 10/118/9 49/86/23
f 10/118/9 52/87/31 49/86/23
f 9/9/2 7/8/6 48/49/14
f 51/50/35 9/9/2 48/49/14
f 15/131/18 16/110/11 9/130/2
f 16/110/11 10/109/9 9/130/2
f 16/121/11 54/88/44 52/87/31
f 10/118/9 16/121/11 52/87/31
f 54/107/44 53/83/42 51/82/35
f 52/106/31 54/107/44 51/82/35
f 53/51/42 15/10/18 51/50/35
f 15/10/18 9/9/2 51/50/35
f 1/35/7 2/36/1 27/40/37
f 2/36/1 28/41/39 27/40/37
f 4/2/4 1/1/7 27/28/37
f 30/29/49 4/2/4 27/28/37
f 28/124/39 30/104/49 27/103/37
f 31/126/32 30/104/49 28/124/39
f 3/122/13 6/123/8 29/99/24
f 6/123/8 32/100/25 29/99/24
f 4/112/4 2/97/1 1/111/7
f 4/112/4 5/98/10 2/97/1
f 3/37/13 29/42/24 28/41/39
f 2/36/1 3/37/13 28/41/39
f 64/132/40 66/133/46 63/124/52
f 66/133/46 65/125/41 63/124/52
f 6/80/8 3/79/13 2/97/1
f 5/98/10 6/80/8 2/97/1
f 28/41/39 36/44/23 35/43/22
f 29/42/24 36/44/23 28/41/39
f 37/98/33 28/97/39 35/97/22
f 37/98/33 31/98/32 28/97/39
f 29/99/24 38/94/27 36/93/23
f 32/100/25 38/94/27 29/99/24
f 35/43/22 42/48/23 41/47/22
f 36/44/23 42/48/23 35/43/22
f 43/92/26 35/93/22 41/91/22
f 43/92/26 37/94/33 35/93/22
f 36/93/23 44/92/34 42/91/23
f 38/94/27 44/92/34 36/93/23
f 64/64/40 63/63/52 41/47/22
f 42/48/23 64/64/40 41/47/22
f 63/73/52 65/74/41 41/91/22
f 65/74/41 43/92/26 41/91/22
f 66/74/46 64/73/40 42/91/23
f 44/92/34 66/74/46 42/91/23
f 56/60/3 59/61/36 55/59/6
f 56/60/3 60/62/47 59/61/36
f 59/113/36 57/114/5 55/113/6
f 61/114/48 57/114/5 59/113/36
f 60/127/47 61/102/48 59/101/36
f 62/128/46 61/102/48 60/127/47
f 58/96/16 60/95/47 56/95/3
f 58/96/16 62/96/46 60/95/47
f 57/114/5 56/95/3 55/113/6
f 57/114/5 58/96/16 56/95/3
f 13/90/5 12/84/3 11/89/6
f 13/90/5 14/85/16 12/84/3
f 11/89/6 12/84/3 17/89/36
f 12/84/3 18/84/47 17/89/36
f 12/119/3 14/120/16 18/115/47
f 14/120/16 20/116/46 18/115/47
f 14/85/16 13/90/5 19/90/48
f 20/85/46 14/85/16 19/90/48
f 13/120/5 11/119/6 17/115/36
f 19/116/48 13/120/5 17/115/36
f 18/84/47 19/90/48 17/89/36
f 20/85/46 19/90/48 18/84/47
f 71/69/51 52/34/31 51/33/35
f 72/70/46 52/34/31 71/69/51
f 70/68/48 51/33/35 50/32/5
f 71/69/51 51/33/35 70/68/48
f 26/16/21 25/15/19 33/17/29
f 34/18/28 26/16/21 33/17/29
f 45/30/30 15/6/18 53/33/42
f 45/30/30 21/11/20 15/6/18
f 21/11/20 16/7/11 15/6/18
f 22/12/17 16/7/11 21/11/20
f 54/34/44 22/12/17 46/31/43
f 54/34/44 16/7/11 22/12/17
f 54/34/44 45/30/30 53/33/42
f 54/34/44 46/31/43 45/30/30
f 39/24/45 21/11/20 45/30/30
f 39/24/45 23/13/12 21/11/20
f 23/13/12 22/12/17 21/11/20
f 23/13/12 24/14/15 22/12/17
f 22/12/17 40/25/38 46/31/43
f 24/14/15 40/25/38 22/12/17
f 46/31/43 39/24/45 45/30/30
f 40/25/38 39/24/45 46/31/43
f 33/17/29 23/13/12 39/24/45
f 33/17/29 25/15/19 23/13/12
f 25/15/19 24/14/15 23/13/12
f 25/15/19 26/16/21 24/14/15
f 24/14/15 34/18/28 40/25/38
f 26/16/21 34/18/28 24/14/15
f 40/25/38 33/17/29 39/24/45
f 34/18/28 33/17/29 40/25/38
f 5/4/10 4/3/4 30/19/49
f 31/20/32 5/4/10 30/19/49
f 32/21/25 6/5/8 31/20/32
f 6/5/8 5/4/10 31/20/32
f 38/23/27 31/20/32 37/22/33
f 38/23/27 32/21/25 31/20/32
f 44/27/34 37/22/33 43/26/26
f 38/23/27 37/22/33 44/27/34
f 65/57/41 66/58/46 43/26/26
f 66/58/46 44/27/34 43/26/26
f 61/52/48 58/46/16 57/45/5
f 62/53/46 58/46/16 61/52/48
