####
#
#	OBJ File Generated by LightWave3D
#	LightWave3D OBJ Export v2.3
#
####
o oriental_houses_03_LOD3.obj
mtllib oriental_houses_03_LOD3.mtl
g default
v -222.373 90.4641 52
v -222.373 90.4641 -22
v -219.373 85.5359 52
v -219.373 85.5359 -22
v -197 105.464 52
v -197 105.464 -22
v -194 0 120
v -194 0 -13.8308
v -194 0 -132
v -194 100.536 52
v -194 100.536 -22
v -194 206 120
v -194 206 -12.2462
v -194 206 -132
v -194 220 -12.2462
v -194 242 -132
v -184 184 110
v -184 184 -12.4154
v -184 184 -122
v -184 206 110
v -184 206 -12.2462
v -184 206 -122
v -184 220 -12.2462
v -184 242 -122
v -177 133.372 137.256
v -177 133.618 114.856
v -177 138.044 137.358
v -177 138.29 114.958
v -135 180 66.6469
v -135 180 -115
v -135 320 66.6469
v -135 320 -115
v -71.8413 0 120
v -71.8413 0 -13.8308
v -71.8413 0 -132
v -70.381 184 110
v -70.381 184 -12.4154
v -70.381 184 -122
v -70.2064 206 120
v -70.2064 206 110
v -70.2064 206 -122
v -70.2064 206 -132
v -70.2064 220 -122
v -70.2064 220 -132
v -63.4342 273.402 -133.313
v -63.4342 277.098 -135.833
v -63.4342 284.652 -112
v -63.4342 288.348 -114.52
v 6.06 133.372 137.256
v 6.06 133.618 114.856
v 6.06 138.044 137.358
v 6.06 138.29 114.958
v 12.2846 273.402 -133.313
v 12.2846 277.098 -135.833
v 12.2846 284.652 -112
v 12.2846 288.348 -114.52
v 16 85.5359 -157.373
v 16 90.4641 -160.373
v 16 100.536 -132
v 16 105.464 -135
v 50 180 66.6469
v 50 180 -115
v 50 320 66.6469
v 50 320 -115
v 64 100 147
v 64 100 118
v 64 181 147
v 64 192 118
v 134 100 147
v 134 100 118
v 134 181 147
v 134 192 118
v 170 182.5 109.177
v 170 182.5 100.823
v 170 307.5 109.177
v 170 307.5 100.823
v 178 85.5359 -157.373
v 178 90.4641 -160.373
v 178 100.536 -132
v 178 105.464 -135
v 180 182.5 109.177
v 180 182.5 100.823
v 180 307.5 109.177
v 180 307.5 100.823
v 186 184 110
v 186 184 -12.4154
v 186 184 -122
v 186 206 110
v 186 206 -12.2462
v 186 206 -122
v 196 0 120
v 196 0 -13.8308
v 196 0 -132
v 196 206 120
v 196 206 -12.2462
v 196 206 -132
vt 0.00924997 0.765352
vt 0.0122043 0.760473
vt 0.017212 0.443264
vt 0.017212 0.523277
vt 0.0342365 0.780201
vt 0.0371908 0.675792
vt 0.0371908 0.775323
vt 0.0371908 0.879732
vt 0.0371908 0.893592
vt 0.0442143 0.344483
vt 0.0442143 0.547972
vt 0.0462145 0.443264
vt 0.0462145 0.534143
vt 0.0470385 0.857952
vt 0.0470385 0.857981
vt 0.0470385 0.866475
vt 0.0470385 0.879732
vt 0.0470385 0.880375
vt 0.0470385 0.893592
vt 0.0539319 0.807831
vt 0.0539319 0.808074
vt 0.0539319 0.812456
vt 0.0539319 0.812699
vt 0.0550387 0.524759
vt 0.0550387 0.648235
vt 0.0633926 0.524759
vt 0.0633926 0.648235
vt 0.0952921 0.853992
vt 0.0952921 0.992592
vt 0.133572 0.522289
vt 0.133572 0.660583
vt 0.157489 0.675792
vt 0.158927 0.857952
vt 0.158927 0.857981
vt 0.159099 0.866475
vt 0.159099 0.871881
vt 0.159099 0.879732
vt 0.165768 0.94646
vt 0.165768 0.950119
vt 0.165768 0.957597
vt 0.165768 0.961257
vt 0.176472 0.547972
vt 0.178057 0.344483
vt 0.234203 0.807831
vt 0.234203 0.808074
vt 0.234203 0.812456
vt 0.234203 0.812699
vt 0.240333 0.94646
vt 0.240333 0.950119
vt 0.240333 0.957597
vt 0.240333 0.961257
vt 0.243992 0.760473
vt 0.243992 0.765352
vt 0.243992 0.775323
vt 0.243992 0.780201
vt 0.276235 0.625666
vt 0.277474 0.853992
vt 0.277474 0.992592
vt 0.278755 0.629317
vt 0.279235 0.522289
vt 0.279235 0.660583
vt 0.286236 0.547972
vt 0.286236 0.561802
vt 0.291261 0.774792
vt 0.291261 0.865872
vt 0.293093 0.774792
vt 0.293093 0.854982
vt 0.296236 0.344483
vt 0.296236 0.443794
vt 0.296236 0.547972
vt 0.296236 0.561802
vt 0.29755 0.614553
vt 0.299237 0.448662
vt 0.30007 0.618204
vt 0.321612 0.428976
vt 0.324612 0.433845
vt 0.334881 0.434091
vt 0.337869 0.42923
vt 0.355305 0.774792
vt 0.355305 0.854982
vt 0.360158 0.448886
vt 0.360194 0.774792
vt 0.360194 0.865872
vt 0.363147 0.344864
vt 0.363147 0.444025
vt 0.363147 0.548047
vt 0.363147 0.583555
vt 0.3662 0.455712
vt 0.3662 0.47756
vt 0.380083 0.522403
vt 0.380083 0.660489
vt 0.395646 0.856467
vt 0.395646 0.980217
vt 0.403524 0.760473
vt 0.403524 0.765352
vt 0.403524 0.775323
vt 0.403524 0.780201
vt 0.405494 0.856467
vt 0.405494 0.980217
vt 0.411402 0.857952
vt 0.411402 0.879732
vt 0.42125 0.675792
vt 0.42125 0.879732
vt 0.480873 0.344864
vt 0.482451 0.548047
vt 0.482451 0.561856
vt 0.492662 0.47756
vt 0.492662 0.491464
vt 0.492837 0.455712
vt 0.502191 0.675792
vt 0.502191 0.879732
vt 0.561048 0.522403
vt 0.561048 0.660489
vt 0.595097 0.524869
vt 0.595097 0.64816
vt 0.603418 0.524869
vt 0.603418 0.64816
vt 0.6062 0.455712
vt 0.6062 0.47756
vt 0.6062 0.513312
vt 0.609077 0.476655
vt 0.609178 0.481263
vt 0.612209 0.443496
vt 0.612209 0.534239
vt 0.614201 0.344864
vt 0.614201 0.548047
vt 0.631393 0.476412
vt 0.631494 0.481021
vt 0.6411 0.443496
vt 0.6411 0.523389
vt 0.645967 0.853992
vt 0.645967 0.992592
vt 0.665188 0.466661
vt 0.665188 0.627123
vt 0.686001 0.387982
vt 0.686001 0.462981
vt 0.686844 0.466661
vt 0.686844 0.627123
vt 0.689877 0.258656
vt 0.689877 0.381274
vt 0.689877 0.644952
vt 0.699989 0.268561
vt 0.699989 0.381101
vt 0.699989 0.381274
vt 0.699989 0.635047
vt 0.707067 0.317095
vt 0.707067 0.500338
vt 0.707552 0.387982
vt 0.707552 0.462981
vt 0.764342 0.879732
vt 0.764342 0.893592
vt 0.765952 0.675792
vt 0.801104 0.230552
vt 0.801104 0.255684
vt 0.810795 0.268561
vt 0.810795 0.381101
vt 0.810795 0.635047
vt 0.810966 0.258656
vt 0.810966 0.268561
vt 0.810966 0.635047
vt 0.810966 0.644952
vt 0.828149 0.853992
vt 0.828149 0.992592
vt 0.875929 0.230552
vt 0.875929 0.255684
vt 0.88625 0.675792
vt 0.88625 0.879732
vt 0.88625 0.915372
vt 0.890739 0.317095
vt 0.890739 0.500338
vt 0.925297 0.619199
vt 0.925297 0.629104
vt 0.933743 0.619199
vt 0.933743 0.629104
vt 0.934575 0.268561
vt 0.934575 0.381101
vt 0.934575 0.381274
vt 0.934575 0.635047
vt 0.939589 0.275494
vt 0.939589 0.456816
vt 0.942665 0.514206
vt 0.942665 0.583541
vt 0.944687 0.258656
vt 0.944687 0.381274
vt 0.944687 0.644952
vt 0.962239 0.275494
vt 0.962239 0.456816
vt 0.971988 0.514206
vt 0.971988 0.583541
vn -0.913983 0.228549 0.335263
vn -0.872872 0.436436 0.218218
vn -0.83205 -0.5547 -0
vn -0.83205 0.5547 -0
vn -0.790386 0.197643 -0.579852
vn -0.707107 0 -0.707107
vn -0.666667 -0.666667 0.333333
vn -0.666667 -0.666667 -0.333333
vn -0.666667 0.333333 0.666667
vn -0.665072 0.672277 -0.32515
vn -0.665072 -0.347007 0.661261
vn -0.664762 -0.745073 0.0543843
vn -0.664762 0.631781 0.398678
vn -0.650601 0.65418 0.385702
vn -0.650601 -0.758616 0.0349247
vn -0.619619 0.289671 0.729495
vn -0.600298 -0.192722 0.776209
vn -0.579852 -0.197643 0.790386
vn -0.579441 0.56678 0.585669
vn -0.578409 0.517471 0.630608
vn -0.57735 -0.57735 0.57735
vn -0.57735 0.57735 -0.57735
vn -0.436436 0.872872 0.218218
vn -0.419129 0.807745 -0.414583
vn -0.408248 -0.816497 -0.408248
vn -0.402821 0.753273 -0.519918
vn -0.398678 -0.631781 -0.664762
vn -0.351363 0.225605 -0.908651
vn -0.335263 0.228549 -0.913983
vn -0.334945 -0.655255 -0.677091
vn -0.333333 0.666667 0.666667
vn -0.333333 0.666667 -0.666667
vn -0.235702 0.942809 -0.235702
vn -0.0543843 0.745073 -0.664762
vn 0 -1 -0
vn 0 -0.707107 -0.707107
vn 0 -0.5547 0.83205
vn 0 0.5547 0.83205
vn 0 0.5547 -0.83205
vn 0 0.8 0.6
vn 0 1 -0
vn 0.0543843 -0.745073 0.664762
vn 0.218218 0.436436 -0.872872
vn 0.218218 0.872872 -0.436436
vn 0.278711 0.917775 0.282859
vn 0.333333 -0.666667 0.666667
vn 0.334945 0.655254 0.677092
vn 0.335263 -0.228549 0.913982
vn 0.351362 -0.225606 0.908651
vn 0.398678 0.631781 0.664762
vn 0.408248 -0.408248 -0.816497
vn 0.408248 0.816497 0.408248
vn 0.408248 0.816497 0.408248
vn 0.436436 0.218218 0.872872
vn 0.471067 0.388717 0.79183
vn 0.57735 -0.57735 0.57735
vn 0.57735 0.57735 -0.57735
vn 0.57944 -0.566781 -0.585669
vn 0.579852 0.197643 -0.790386
vn 0.6 0.8 -0
vn 0.600298 0.192721 -0.776209
vn 0.619619 0.579343 0.52956
vn 0.628897 0.519603 -0.578361
vn 0.650601 -0.654181 -0.385702
vn 0.650601 0.758616 -0.0349244
vn 0.660719 0.617771 -0.426392
vn 0.664762 -0.631781 -0.398678
vn 0.664762 0.745073 -0.0543843
vn 0.665072 -0.672277 0.32515
vn 0.665072 0.347006 -0.661261
vn 0.666667 -0.333333 -0.666667
vn 0.666667 0.666667 0.333333
vn 0.666667 0.666667 -0.333333
vn 0.666667 0.666667 -0.333333
vn 0.707107 0 0.707107
vn 0.707107 -0.707107 -0
vn 0.790386 -0.197643 0.579852
vn 0.790997 0.387785 0.47323
vn 0.83205 0.5547 -0
vn 0.872872 0.218218 0.436436
vn 0.913983 -0.228549 -0.335263
usemtl oriental_house_03_lod3
s off
f 13/105/2 14/86/6 8/104/3
f 14/86/6 9/84/25 8/104/3
f 13/105/2 8/104/3 7/125/7
f 12/126/31 13/105/2 7/125/7
f 93/68/51 96/70/74 92/43/76
f 96/70/74 95/42/60 92/43/76
f 92/43/76 95/42/60 91/10/56
f 95/42/60 94/11/52 91/10/56
f 24/142/45 16/139/24 15/158/20
f 24/142/45 15/158/20 23/159/78
f 20/175/44 13/158/2 12/183/31
f 21/159/80 13/158/2 20/175/44
f 96/141/74 90/145/23 95/161/60
f 95/161/60 90/145/23 89/160/4
f 95/161/60 88/178/33 94/185/52
f 95/161/60 89/160/4 88/178/33
f 19/118/53 22/119/75 18/109/79
f 22/119/75 21/107/80 18/109/79
f 18/109/79 21/107/80 17/88/73
f 21/107/80 20/89/44 17/88/73
f 89/107/4 90/119/23 86/109/4
f 90/119/23 87/118/31 86/109/4
f 89/107/4 86/109/4 85/88/22
f 88/89/33 89/107/4 85/88/22
f 8/6/3 9/6/25 34/32/35
f 9/6/25 35/32/36 34/32/35
f 35/32/36 93/102/51 92/102/76
f 35/32/36 92/102/76 34/32/35
f 8/6/3 34/32/35 7/6/7
f 7/6/7 34/32/35 33/32/37
f 34/32/35 92/102/76 91/102/56
f 34/32/35 91/102/56 33/32/37
f 19/142/53 18/155/79 37/156/41
f 38/143/38 19/142/53 37/156/41
f 86/157/4 87/145/31 37/156/41
f 87/145/31 38/143/38 37/156/41
f 86/157/4 37/156/41 85/178/22
f 85/178/22 37/156/41 36/176/39
f 37/156/41 18/155/79 17/175/73
f 37/156/41 17/175/73 36/176/39
f 91/102/56 39/37/40 33/32/37
f 94/103/52 39/37/40 91/102/56
f 39/37/40 12/8/31 33/32/37
f 12/8/31 7/6/7 33/32/37
f 42/150/43 93/110/51 35/152/36
f 42/150/43 96/111/74 93/110/51
f 14/167/6 42/150/43 35/152/36
f 9/166/25 14/167/6 35/152/36
f 94/185/52 88/178/33 39/184/40
f 88/178/33 40/177/39 39/184/40
f 20/175/44 12/183/31 39/184/40
f 40/177/39 20/175/44 39/184/40
f 96/141/74 42/140/43 90/145/23
f 90/145/23 42/140/43 41/144/54
f 16/139/24 24/142/45 44/140/63
f 44/140/63 24/142/45 43/144/55
f 87/100/31 41/37/54 38/33/38
f 90/101/23 41/37/54 87/100/31
f 41/35/54 22/16/75 38/34/38
f 22/16/75 19/15/53 38/34/38
f 40/37/39 85/100/22 36/33/39
f 40/37/39 88/101/33 85/100/22
f 20/17/44 40/37/39 36/33/39
f 17/14/73 20/17/44 36/33/39
f 15/106/20 14/86/6 13/105/2
f 15/106/20 16/87/24 14/86/6
f 24/120/45 23/108/78 22/119/75
f 22/119/75 23/108/78 21/107/80
f 23/19/78 15/9/20 21/17/80
f 15/9/20 13/8/2 21/17/80
f 16/168/24 44/151/63 14/167/6
f 14/167/6 44/151/63 42/150/43
f 44/71/63 43/63/55 41/62/54
f 42/70/43 44/71/63 41/62/54
f 43/36/55 22/16/75 41/35/54
f 43/36/55 24/18/45 22/16/75
f 10/7/77 5/5/50 3/2/42
f 5/5/50 1/1/1 3/2/42
f 11/7/81 10/7/77 3/2/42
f 4/2/27 11/7/81 3/2/42
f 1/1/1 4/2/27 3/2/42
f 1/1/1 2/1/5 4/2/27
f 5/165/50 6/154/34 1/164/1
f 6/154/34 2/153/5 1/164/1
f 11/7/81 5/5/50 10/7/77
f 6/5/34 5/5/50 11/7/81
f 6/5/34 11/7/81 4/2/27
f 2/1/5 6/5/34 4/2/27
f 50/121/58 52/122/70 49/127/69
f 52/122/70 51/128/47 49/127/69
f 26/21/30 50/45/58 49/44/69
f 25/20/11 26/21/30 49/44/69
f 51/46/47 25/20/11 49/44/69
f 51/46/47 27/22/19 25/20/11
f 52/180/70 28/179/10 51/187/47
f 28/179/10 27/186/19 51/187/47
f 26/21/30 52/47/70 50/45/58
f 28/23/10 52/47/70 26/21/30
f 28/122/10 26/121/30 25/127/11
f 27/128/19 28/122/10 25/127/11
f 47/40/17 48/41/14 45/38/15
f 48/41/14 46/39/28 45/38/15
f 55/50/49 47/40/17 45/38/15
f 55/50/49 45/38/15 53/48/64
f 45/38/15 46/39/28 53/48/64
f 46/39/28 54/49/61 53/48/64
f 48/148/14 56/149/65 46/135/28
f 46/135/28 56/149/65 54/136/61
f 48/41/14 47/40/17 55/50/49
f 56/51/65 48/41/14 55/50/49
f 56/59/65 55/56/49 53/72/64
f 54/74/61 56/59/65 53/72/64
f 81/98/46 75/93/9 73/92/21
f 83/99/72 75/93/9 81/98/46
f 75/117/9 74/114/8 73/116/21
f 75/117/9 76/115/32 74/114/8
f 83/174/72 76/171/32 75/173/9
f 84/172/57 76/171/32 83/174/72
f 82/26/71 83/25/72 81/24/46
f 84/27/57 83/25/72 82/26/71
f 74/92/8 81/98/46 73/92/21
f 74/92/8 82/98/71 81/98/46
f 76/93/32 82/98/71 74/92/8
f 76/93/32 84/99/57 82/98/71
f 31/29/9 29/28/21 61/57/46
f 63/58/72 31/29/9 61/57/46
f 31/113/9 30/90/8 29/112/21
f 31/113/9 32/91/32 30/90/8
f 32/146/32 31/169/9 63/170/72
f 64/147/57 32/146/32 63/170/72
f 62/60/71 63/31/72 61/30/46
f 64/61/57 63/31/72 62/60/71
f 29/28/21 30/28/8 61/57/46
f 30/28/8 62/57/71 61/57/46
f 30/162/8 32/163/32 62/131/71
f 32/163/32 64/132/57 62/131/71
f 66/64/8 69/82/46 65/64/21
f 66/64/8 70/82/71 69/82/46
f 69/79/46 67/67/16 65/66/21
f 71/80/62 67/67/16 69/79/46
f 70/12/71 71/4/62 69/3/46
f 72/13/66 71/4/62 70/12/71
f 68/65/26 70/82/71 66/64/8
f 68/65/26 72/83/66 70/82/71
f 67/130/16 66/123/8 65/129/21
f 67/130/16 68/124/26 66/123/8
f 71/189/62 68/181/26 67/188/16
f 72/182/66 68/181/26 71/189/62
f 59/85/18 60/81/13 57/78/12
f 60/81/13 58/77/29 57/78/12
f 79/96/48 59/54/18 57/52/12
f 77/94/67 79/96/48 57/52/12
f 58/53/29 77/94/67 57/52/12
f 58/53/29 78/95/59 77/94/67
f 60/137/13 80/138/68 58/133/29
f 80/138/68 78/134/59 58/133/29
f 79/96/48 60/55/13 59/54/18
f 80/97/68 60/55/13 79/96/48
f 80/73/68 79/69/48 77/75/67
f 78/76/59 80/73/68 77/75/67
