####
#
#	OBJ File Generated by LightWave3D
#	LightWave3D OBJ Export v2.3
#
####
o woods.obj
mtllib woods.mtl
g default
v -34.2811 0.580582 -1.38128
v -34.2733 2.91435 -1.7268
v -34.2569 0.109848 -1.73056
v -34.2463 3.2635 -2.19746
v -34.2354 0.11348 -4.53501
v -34.2276 2.44728 -4.88053
v -34.2095 -0.235855 -4.06442
v -34.199 2.9178 -4.53133
v -5.3454 0.15477 7.71632
v -5.09918 -0.220169 6.24712
v -4.98126 0.201065 8.04767
v -4.64838 -0.305252 6.06226
v -3.3028 0.127518 1.41141
v -3.05243 23.6967 1.45187
v -2.94647 -0.207809 -0.896526
v -2.888 0.189774 1.89001
v -2.82269 23.3269 0.0753059
v -2.74213 26.3931 -3.04363
v -2.70953 23.7485 1.76129
v -2.66205 0.0879059 8.46527
v -2.49188 53.3191 -5.78456
v -2.40753 26.0585 -5.20985
v -2.40656 -0.262985 -1.22876
v -2.39825 23.2552 -0.100414
v -2.35223 26.4609 -2.59516
v -2.32916 -0.418381 6.47986
v -2.21136 0.00187683 8.28063
v -2.13617 52.9444 -8.08688
v -2.07684 53.4013 -5.3088
v -1.96515 -0.373032 6.81144
v -1.89996 26.0159 -5.5234
v -1.59589 52.9091 -8.42195
v -0.567444 47.9057 -3.07597
v -0.536072 47.5093 -4.56023
v -0.529846 23.6422 2.15375
v -0.218689 23.1489 0.292049
v -0.170471 0.206863 2.3071
v -0.159119 47.9537 -2.80043
v -0.115662 47.4307 -4.80916
v -0.107117 23.553 1.98221
v 0.12262 23.1832 0.60564
v 0.201721 26.4769 -2.20317
v 0.310974 -0.245895 -0.811665
v 0.369446 0.15062 1.97503
v 0.408508 0.868332 -1.5391
v 0.415955 3.0616 -1.86383
v 0.419006 0.42598 -1.86734
v 0.428894 0.429459 -4.50296
v 0.429016 3.38982 -2.30614
v 0.436218 2.62273 -4.82767
v 0.450867 3.06499 -4.49948
v 0.640686 53.4184 -4.8917
v 0.653992 26.0319 -5.13141
v 0.709045 26.4148 -2.51394
v 0.725769 -0.184708 -0.332905
v 1.04364 26.0802 -4.68016
v 1.12164 52.9262 -8.00486
v 1.18036 53.3422 -5.22094
v 1.36029 48.7706 -5.81103
v 1.53607 52.9675 -7.52326
v 1.70392 48.8936 -5.35221
v 1.71991 48.3994 -8.11327
v 2.18878 48.4051 -8.46527
v 2.19012 47.762 -2.69973
v 2.23358 47.2391 -4.70846
v 2.60724 47.6467 -2.93988
v 2.63849 47.2503 -4.42414
v 3.67499 24.264 -1.97678
v 3.99872 24.371 -1.5442
v 4.01154 23.9311 -4.14295
v 4.02667 49.154 -5.03131
v 4.45294 23.9278 -4.47239
v 4.49896 49.1224 -5.37739
v 4.51154 48.6655 -8.14437
v 4.8587 48.7513 -7.67963
v 5.72662 0.34053 1.87757
v 6.07196 0.44548 2.33929
v 6.08307 0.0052948 -0.430355
v 6.1817 24.6157 -1.24261
v 6.55353 -0.00721741 -0.779469
v 6.62469 24.5947 -1.56924
v 6.63593 24.1725 -4.17081
v 6.96136 24.2618 -3.73542
v 8.39471 0.705826 2.66019
v 8.8653 0.692368 2.31122
v 8.87628 0.253159 -0.458569
v 9.22174 0.357132 0.00329208
v 34.2669 0.224228 -4.63856
v 34.267 -0.125046 -4.16795
v 34.2704 0.220474 -1.83415
v 34.272 0.691116 -1.48492
v 34.2747 2.55797 -4.9841
v 34.2776 3.02861 -4.63485
v 34.2798 3.02486 -1.83043
v 34.2811 3.37413 -2.30107
vt 1.66028 1.1074
vt 1.66065 1.01419
vt 1.66267 1.03006
vt 1.66785 1.28487
vt 1.67034 1.14383
vt 1.67171 1.65551
vt 1.67269 1.1665
vt 1.67437 1.7745
vt 1.6883 1.48691
vt 1.69204 1.50116
vt 1.69231 1.59195
vt 1.69266 1.35207
vt 1.69499 1.3294
vt 1.69551 1.57888
vt 1.69732 1.47045
vt 1.87878 1.26149
vt 1.88137 1.2799
vt 1.88344 1.42213
vt 1.88536 1.39877
vt 1.98462 1.72136
vt 1.9853 1.56068
vt 1.98591 1.70292
vt 1.98643 1.58401
vt 1.99887 1.23929
vt 1.99967 1.37777
vt 2.00824 1.47466
vt 2.00848 1.45588
vt 2.00972 1.59357
vt 2.00982 1.61656
vt 2.01104 1.52693
vt 2.01344 1.38846
vt 2.02856 0.886361
vt 2.03557 0.955765
vt 2.03781 0.889032
vt 2.04089 0.936864
vt 2.04173 0.872688
vt 2.0425 0.892392
vt 2.04494 0.95844
vt 2.04887 0.875769
vt 2.05113 1.76942
vt 2.05122 0.966536
vt 2.05303 0.944892
vt 2.05341 1.65042
vt 2.05514 0.884704
vt 2.05544 1.15166
vt 2.05641 1.27592
vt 2.05646 1.12764
vt 2.05778 1.29554
vt 2.05849 0.96962
vt 2.11911 0.869348
vt 2.12318 0.945098
vt 2.1236 0.863929
vt 2.1253 0.88491
vt 2.12873 0.963198
vt 2.13272 0.880355
vt 2.13309 0.957777
vt 2.13569 0.937143
vt 2.1373 0.89267
vt 2.13919 0.874524
vt 2.13985 0.949763
vt 2.1462 0.943929
vt 2.52275 1.98559
vt 2.52284 1.88509
vt 2.52294 2.00585
vt 2.52308 1.87005
vt 2.52446 2.11408
vt 2.52459 2.12913
vt 2.5274 1.85676
vt 2.52776 1.75627
vt 2.52935 2.01539
vt 2.52971 2.11588
vt 2.86491 1.29115
vt 2.86683 1.15859
vt 2.86946 1.17991
vt 2.88633 1.16632
vt 2.88857 1.15569
vt 2.88961 1.64849
vt 2.89025 1.06811
vt 2.89031 1.34666
vt 2.89171 1.08302
vt 2.89208 1.32536
vt 2.89211 1.76032
vt 2.89469 1.45791
vt 2.92945 1.50047
vt 2.93267 1.51106
vt 2.93404 1.59865
vt 2.93631 1.58371
vt 3.24788 1.30384
vt 3.24984 1.32115
vt 3.25137 1.45483
vt 3.25269 1.43288
vt 3.26848 1.77158
vt 3.26863 1.47619
vt 3.26921 1.58794
vt 3.26931 1.45853
vt 3.26975 1.60954
vt 3.27062 1.65974
vt 3.33009 1.25555
vt 3.33085 1.3857
vt 3.33157 1.74758
vt 3.33231 1.73025
vt 3.3332 1.59657
vt 3.33379 1.6185
vt 3.34109 1.26817
vt 3.34114 1.1514
vt 3.34197 1.52499
vt 3.34255 1.12882
vt 3.34284 1.28662
vt 3.34423 1.39486
vt 3.97943 1.88859
vt 3.98017 1.87445
vt 3.98043 1.98304
vt 3.98112 2.00208
vt 3.98215 2.13863
vt 3.98255 2.12449
vt 3.98264 1.86968
vt 3.98298 1.77524
vt 3.98607 2.00366
vt 3.98641 2.09811
vt 4.02 1.86325
vt 4.02143 1.96128
vt 4.02303 1.86418
vt 4.02339 1.96212
vt 4.03697 1.84574
vt 4.03891 1.97818
vt 4.04019 1.84691
vt 4.04067 1.97926
vt 4.09676 1.28238
vt 4.09771 1.16287
vt 4.11944 1.34352
vt 4.12021 1.46302
vt 4.12918 1.13543
vt 4.13093 1.12112
vt 4.13249 1.03037
vt 4.13387 1.04338
vt 4.13501 1.84431
vt 4.13566 1.63496
vt 4.13696 1.97675
vt 4.13824 1.84654
vt 4.13832 1.75395
vt 4.13873 1.97889
vt 4.15248 1.86132
vt 4.15392 1.95935
vt 4.15553 1.86368
vt 4.15589 1.96162
vt 4.16245 1.44875
vt 4.1634 1.54196
vt 4.16536 1.52608
vt 4.49814 1.58855
vt 4.4985 1.46964
vt 4.49917 1.61154
vt 4.49968 1.45086
vt 4.51697 1.78195
vt 4.51924 1.66295
vt 4.59566 1.25056
vt 4.59724 1.26897
vt 4.59831 1.41122
vt 4.59921 1.38787
vt 4.65666 1.26884
vt 4.65763 1.14458
vt 4.65902 1.28846
vt 4.65962 1.12055
vt 4.69243 1.26482
vt 4.69324 1.4033
vt 4.69942 1.69892
vt 4.6997 1.68049
vt 4.70211 1.53823
vt 4.70223 1.56157
vt 4.70671 1.53251
vt 4.70912 1.39404
vt 5.4715 1.88482
vt 5.47285 1.86977
vt 5.4736 1.98532
vt 5.47387 1.86027
vt 5.47423 1.75977
vt 5.4749 2.00558
vt 5.47541 2.14101
vt 5.47639 2.12597
vt 5.47801 2.01186
vt 5.47836 2.11235
vn -0.999735 0.00026706 0.0230094
vn -0.991149 -0.0664863 0.114905
vn -0.977129 0.0471859 0.207345
vn -0.967425 -0.0475234 0.248658
vn -0.960905 0.0661154 0.268867
vn -0.957028 0.153351 0.246131
vn -0.939435 0.170598 0.29725
vn -0.916047 -0.0978359 0.388955
vn -0.908743 -0.049409 -0.41442
vn -0.891602 -0.147445 -0.428142
vn -0.884153 -0.0365999 -0.465762
vn -0.848703 0.296072 -0.43823
vn -0.829086 0.33733 -0.445899
vn -0.821334 0.0671742 -0.566478
vn -0.811955 0.546976 0.203832
vn -0.796286 0.328208 -0.508142
vn -0.773638 -0.162034 -0.61256
vn -0.742171 -0.0788442 -0.665557
vn -0.729167 -0.0978355 -0.677306
vn -0.706346 -0.439237 0.55511
vn -0.684388 -0.099224 -0.722335
vn -0.628453 0.0712692 0.774576
vn -0.623246 0.764942 0.162567
vn -0.586324 0.759572 0.281557
vn -0.548073 0.115057 0.828479
vn -0.507665 0.844111 0.172492
vn -0.484353 0.156825 0.860702
vn -0.472416 0.758761 -0.448447
vn -0.46506 0.0970719 0.879941
vn -0.461831 0.234598 0.85538
vn -0.431276 0.271323 0.860456
vn -0.367319 -0.177988 -0.912906
vn -0.340699 0.374243 0.862477
vn -0.29298 0.934623 0.201597
vn -0.248141 0.806051 0.537315
vn -0.201746 -0.154182 -0.967226
vn -0.201501 -0.128496 -0.971023
vn -0.17892 0.365696 -0.913375
vn -0.138772 0.287269 -0.947744
vn -0.130448 0.176164 -0.975679
vn -0.127692 -0.239553 -0.96245
vn -0.125114 -0.209178 -0.969841
vn -0.116373 0.862337 0.492779
vn -0.103104 -0.160505 -0.981635
vn -0.00245575 0.243294 -0.969949
vn -0.00181756 0.986745 0.162271
vn -0.00181242 0.857869 -0.513865
vn -0.00011763 -0.146454 -0.989217
vn -6.96818e-005 -0.595871 0.80308
vn 0.000164681 0.626404 0.779499
vn 0.00273652 -0.185449 0.98265
vn 0.0706099 0.487367 0.870338
vn 0.102286 0.169467 0.980213
vn 0.128378 0.245825 0.960775
vn 0.137066 0.857066 -0.496639
vn 0.159354 0.208369 0.964981
vn 0.165035 0.806509 0.567721
vn 0.201268 0.128572 0.971062
vn 0.201908 0.162948 0.965754
vn 0.240616 0.682277 -0.690364
vn 0.261643 0.832266 0.48875
vn 0.270327 0.771638 -0.575758
vn 0.333401 0.350789 -0.875095
vn 0.33355 -0.353206 0.874065
vn 0.359278 -0.241621 -0.901409
vn 0.367301 0.178102 0.912891
vn 0.438216 -0.124729 -0.890174
vn 0.465112 -0.0984318 -0.879763
vn 0.477047 0.852446 0.21392
vn 0.518052 -0.26032 -0.814773
vn 0.586878 0.707472 0.393772
vn 0.587897 -0.138685 -0.796959
vn 0.627529 -0.0616799 -0.776146
vn 0.66875 0.135738 0.730992
vn 0.715649 0.389548 0.57974
vn 0.728984 0.398861 0.55632
vn 0.734964 0.580309 -0.350812
vn 0.742384 0.103532 0.661927
vn 0.753923 0.585334 -0.298301
vn 0.759269 0.48953 -0.428801
vn 0.813352 0.504121 -0.29038
vn 0.820156 0.222052 0.527293
vn 0.851386 0.160862 0.499265
vn 0.891579 0.147556 0.428152
vn 0.893203 -0.0687606 -0.444365
vn 0.893456 -0.269785 0.359099
vn 0.893818 0.0177014 0.448081
vn 0.8993 -0.183721 -0.39687
vn 0.908642 0.0424696 0.41541
vn 0.931911 -0.0662135 -0.356591
vn 0.966964 0.0524176 -0.249465
vn 0.967253 0.0493304 -0.248976
vn 0.983883 -0.121714 -0.130996
vn 0.991814 -0.0324464 -0.123501
vn 0.999995 -0.0029251 -0.0015416
usemtl Material::martin_wood_001_mt
s 1
f 51/110/47 8/171/28 49/112/46
f 49/112/46 8/171/28 4/173/24
f 1/180/8 45/119/51 2/179/33
f 2/179/33 45/119/51 46/118/50
f 50/116/45 48/117/48 6/174/14
f 6/174/14 48/117/48 5/175/19
f 5/125/19 7/121/1 6/138/14
f 7/121/1 3/120/20 6/138/14
f 3/120/20 1/124/8 6/138/14
f 6/138/14 1/124/8 8/143/28
f 2/136/33 4/142/24 1/124/8
f 1/124/8 4/142/24 8/143/28
f 92/127/63 93/123/77 88/141/85
f 93/123/77 95/122/69 88/141/85
f 95/122/69 94/126/82 88/141/85
f 88/141/85 94/126/82 89/145/95
f 91/139/64 90/144/86 94/126/82
f 94/126/82 90/144/86 89/145/95
f 47/114/49 45/115/51 3/177/20
f 3/177/20 45/115/51 1/178/8
f 6/172/14 8/171/28 50/111/45
f 50/111/45 8/171/28 51/110/47
f 2/176/33 46/113/50 4/173/24
f 4/173/24 46/113/50 49/112/46
f 90/67/86 91/66/64 47/114/49
f 47/114/49 91/66/64 45/115/51
f 46/118/50 45/119/51 94/70/82
f 94/70/82 45/119/51 91/71/64
f 49/112/46 46/113/50 95/62/69
f 95/62/69 46/113/50 94/64/82
f 93/63/77 51/110/47 95/62/69
f 95/62/69 51/110/47 49/112/46
f 50/111/45 51/110/47 92/65/63
f 92/65/63 51/110/47 93/63/77
f 48/117/48 50/116/45 88/69/85
f 88/69/85 50/116/45 92/68/63
f 22/101/18 18/103/3 28/166/12
f 28/166/12 18/103/3 21/168/23
f 56/91/90 60/19/79 54/89/89
f 54/89/89 60/19/79 58/17/75
f 25/106/25 42/109/58 29/169/35
f 29/169/35 42/109/58 52/170/57
f 57/164/62 53/99/67 32/163/38
f 32/163/38 53/99/67 31/98/37
f 28/33/12 21/32/23 32/41/38
f 32/41/38 21/32/23 57/56/62
f 21/32/23 29/36/35 57/56/62
f 57/56/62 29/36/35 60/61/79
f 58/59/75 60/61/79 52/52/57
f 29/36/35 52/52/57 60/61/79
f 31/100/37 22/101/18 32/165/38
f 32/165/38 22/101/18 28/166/12
f 18/103/3 25/102/25 21/168/23
f 21/168/23 25/102/25 29/167/35
f 57/18/62 60/19/79 53/90/67
f 53/90/67 60/19/79 56/91/90
f 52/16/57 42/88/58 58/17/75
f 58/17/75 42/88/58 54/89/89
f 22/101/18 15/22/9 18/103/3
f 18/103/3 15/22/9 13/23/5
f 13/23/5 16/21/27 18/103/3
f 18/103/3 16/21/27 25/102/25
f 25/106/25 16/30/27 42/109/58
f 42/109/58 16/30/27 37/31/59
f 54/89/89 42/88/58 44/156/78
f 44/156/78 42/88/58 37/155/59
f 56/91/90 54/89/89 55/158/94
f 55/158/94 54/89/89 44/156/78
f 53/90/67 56/91/90 43/157/72
f 43/157/72 56/91/90 55/158/94
f 31/98/37 53/99/67 23/24/36
f 23/24/36 53/99/67 43/25/72
f 15/22/9 22/101/18 23/20/36
f 23/20/36 22/101/18 31/100/37
f 17/76/21 14/80/6 34/133/13
f 34/133/13 14/80/6 33/135/26
f 41/87/88 67/14/80 40/85/87
f 40/85/87 67/14/80 66/10/76
f 19/72/30 35/74/56 38/128/43
f 38/128/43 35/74/56 64/129/61
f 65/131/60 36/83/65 39/130/39
f 39/130/39 36/83/65 24/79/42
f 34/35/13 33/37/26 39/42/39
f 39/42/39 33/37/26 65/51/60
f 33/37/26 38/44/43 65/51/60
f 65/51/60 38/44/43 67/57/80
f 66/58/76 67/57/80 64/53/61
f 38/44/43 64/53/61 67/57/80
f 24/75/42 17/76/21 39/132/39
f 39/132/39 17/76/21 34/133/13
f 14/80/6 19/78/30 33/135/26
f 33/135/26 19/78/30 38/134/43
f 65/11/60 67/14/80 36/86/65
f 36/86/65 67/14/80 41/87/88
f 64/9/61 35/84/56 66/10/76
f 66/10/76 35/84/56 40/85/87
f 17/76/21 10/1/11 14/80/6
f 14/80/6 10/1/11 9/3/7
f 9/3/7 11/2/31 14/80/6
f 14/80/6 11/2/31 19/78/30
f 19/72/30 11/4/31 35/74/56
f 35/74/56 11/4/31 20/7/54
f 40/73/87 35/74/56 27/5/74
f 27/5/74 35/74/56 20/7/54
f 41/87/88 40/85/87 30/148/93
f 30/148/93 40/85/87 27/146/74
f 36/86/65 41/87/88 26/147/70
f 26/147/70 41/87/88 30/148/93
f 24/79/42 36/83/65 12/12/41
f 12/12/41 36/83/65 26/15/70
f 10/13/11 17/81/21 12/12/41
f 12/12/41 17/81/21 24/79/42
f 70/104/10 68/105/4 62/159/16
f 62/159/16 68/105/4 59/160/15
f 83/94/92 75/28/81 81/93/84
f 81/93/84 75/28/81 73/26/71
f 61/153/34 69/92/29 71/154/52
f 71/154/52 69/92/29 79/97/66
f 74/140/55 82/82/68 63/137/40
f 63/137/40 82/82/68 72/77/32
f 63/49/40 62/38/16 74/54/55
f 62/38/16 59/34/15 74/54/55
f 59/34/15 61/39/34 74/54/55
f 74/54/55 61/39/34 75/60/81
f 71/50/52 73/55/71 61/39/34
f 61/39/34 73/55/71 75/60/81
f 70/104/10 62/159/16 72/108/32
f 72/108/32 62/159/16 63/161/40
f 68/105/4 69/107/29 59/160/15
f 59/160/15 69/107/29 61/162/34
f 74/29/55 75/28/81 82/96/68
f 82/96/68 75/28/81 83/94/92
f 71/27/52 79/95/66 73/26/71
f 73/26/71 79/95/66 81/93/84
f 78/46/17 76/45/2 70/104/10
f 70/104/10 76/45/2 68/105/4
f 76/45/2 77/47/22 68/105/4
f 68/105/4 77/47/22 69/107/29
f 79/97/66 69/92/29 84/43/53
f 84/43/53 69/92/29 77/40/22
f 81/93/84 79/95/66 85/150/83
f 85/150/83 79/95/66 84/152/53
f 87/149/91 83/94/92 85/150/83
f 85/150/83 83/94/92 81/93/84
f 82/96/68 83/94/92 86/151/73
f 86/151/73 83/94/92 87/149/91
f 72/77/32 82/82/68 80/6/44
f 80/6/44 82/82/68 86/8/73
f 80/48/44 78/46/17 72/108/32
f 72/108/32 78/46/17 70/104/10
